<svg xmlns="http://www.w3.org/2000/svg" width="40" height="40" viewBox="0 0 40 40">
  <path fill-rule="evenodd" d="M33.2252329,29.0079289 C34.9761949,26.4421739 36,23.3406482 36,20 C36,11.163444 28.836556,4 20,4 C11.163444,4 4,11.163444 4,20 C4,23.3406482 5.0238051,26.4421739 6.77476709,29.0079289 L8.86507004,26.318217 C10.001741,24.8555978 11.7502596,24 13.60263,24 L26.39737,24 C28.2497404,24 29.998259,24.8555978 31.13493,26.318217 L33.2252329,29.0079289 Z M17.4209767,37.8166264 C8.70163756,36.5656262 2,29.0654388 2,20 C2,10.0588745 10.0588745,2 20,2 C29.9411255,2 38,10.0588745 38,20 C38,29.1449901 31.1802295,36.6971374 22.3490177,37.848113 C20.7277826,38.0861934 19.0656803,38.0807471 17.4209767,37.8166264 Z M20,8 C23.3137085,8 26,10.6862915 26,14 L26,16 C26,19.3137085 23.3137085,22 20,22 C16.6862915,22 14,19.3137085 14,16 L14,14 C14,10.6862915 16.6862915,8 20,8 Z"/>
</svg>
