<svg xmlns="http://www.w3.org/2000/svg" xmlnsXlink="http://www.w3.org/1999/xlink" width="24" height="24" viewBox="0 0 24 24">
  <defs>
    <path id="arrow-a" d="M22.707,11.293 L15.707,4.293 C15.3165347,3.90253468 14.6834653,3.90253468 14.293,4.293 L14.293,4.293 C13.9025347,4.68346532 13.9025347,5.31653468 14.293,5.707 L19.586,11 L2,11 C1.447,11 1,11.448 1,12 C1,12.552 1.447,13 2,13 L19.586,13 L14.293,18.293 C13.9025347,18.6834653 13.9025347,19.3165347 14.293,19.707 L14.293,19.707 C14.6834653,20.0974653 15.3165347,20.0974653 15.707,19.707 L22.707,12.707 C23.098,12.316 23.098,11.684 22.707,11.293 Z"/>
  </defs>
  <use xlink:href="#arrow-a"/>
</svg>
