<svg xmlns="http://www.w3.org/2000/svg" width="40" height="40" viewBox="0 0 40 40">
  <path fill-rule="evenodd" d="M28.0705065,9.96738126 L12.0705065,9.96738126 L8,9.96738126 C6.8954305,9.96738126 6,10.8638549 6,11.9697112 L6,33.9953402 C6,35.1011965 6.8954305,35.9976701 8,35.9976701 L32,35.9976701 C33.1045695,35.9976701 34,35.1011965 34,33.9953402 L34,11.9697112 C34,10.8638549 33.1045695,9.96738126 32,9.96738126 L28.0705065,9.96738126 Z M12.2748462,7.96505135 C12.9125043,3.56139965 14.8414869,0.0503794765 20,0.000598302204 C25.1978406,-0.0495623938 27.2067472,3.05792161 27.8741513,7.96505135 L32,7.96505135 C34.209139,7.96505135 36,9.75799862 36,11.9697112 L36,33.9953402 C36,36.2070527 34.209139,38 32,38 L8,38 C5.790861,38 4,36.2070527 4,33.9953402 L4,11.9697112 C4,9.75799862 5.790861,7.96505135 8,7.96505135 L12.2748462,7.96505135 Z M14.2932475,7.96505135 L25.85884,7.96505135 C25.2322233,3.64912269 23.574235,1.96852881 20.0192772,2.0028352 C16.630083,2.03554192 14.9288988,3.91056427 14.2932475,7.96505135 Z"/>
</svg>
