<svg xmlns="http://www.w3.org/2000/svg" xmlnsXlink="http://www.w3.org/1999/xlink" width="24" height="24" viewBox="0 0 24 24">
  <defs>
    <path id="close-a" d="M19.7,4.3 C19.3,3.9 18.7,3.9 18.3,4.3 L12,10.6 L5.7,4.3 C5.3,3.9 4.7,3.9 4.3,4.3 C3.9,4.7 3.9,5.3 4.3,5.7 L10.6,12 L4.3,18.3 C3.9,18.7 3.9,19.3 4.3,19.7 C4.5,19.9 4.7,20 5,20 C5.3,20 5.5,19.9 5.7,19.7 L12,13.4 L18.3,19.7 C18.5,19.9 18.8,20 19,20 C19.2,20 19.5,19.9 19.7,19.7 C20.1,19.3 20.1,18.7 19.7,18.3 L13.4,12 L19.7,5.7 C20.1,5.3 20.1,4.7 19.7,4.3 Z"/>
  </defs>
  <use xlink:href="#close-a"/>
</svg>
