<svg xmlns="http://www.w3.org/2000/svg" xmlnsXlink="http://www.w3.org/1999/xlink" width="24" height="24" viewBox="0 0 24 24">
  <defs>
    <path id="comment-outline-a" d="M11.6171796,15.4122437 C11.9662301,15.1448858 12.3936556,15 12.8333333,15 L22,15 L22,3 L2,3 L2,15 L5,15 C6.1045695,15 7,15.8954305 7,17 L7,18.9488068 L11.6171796,15.4122437 Z M12.8333333,17 L5,23 L5,17 L2,17 C0.8954305,17 0,16.1045695 0,15 L0,3 C0,1.8954305 0.8954305,1 2,1 L22,1 C23.1045695,1 24,1.8954305 24,3 L24,15 C24,16.1045695 23.1045695,17 22,17 L12.8333333,17 Z"/>
  </defs>
  <use xlink:href="#comment-outline-a"/>
</svg>
