<svg xmlns="http://www.w3.org/2000/svg" xmlnsXlink="http://www.w3.org/1999/xlink" width="24" height="24" viewBox="0 0 24 24">
  <defs>
    <path id="email-a" d="M2,4 L22,4 C23.1045695,4 24,4.8954305 24,6 L24,18 C24,19.1045695 23.1045695,20 22,20 L2,20 C0.8954305,20 1.3527075e-16,19.1045695 0,18 L0,6 C-1.3527075e-16,4.8954305 0.8954305,4 2,4 Z M12.0710678,12.6568542 L5.70710678,6.29289322 C5.31658249,5.90236893 4.68341751,5.90236893 4.29289322,6.29289322 C3.90236893,6.68341751 3.90236893,7.31658249 4.29289322,7.70710678 L11.363961,14.7781746 C11.7544853,15.1686989 12.3876503,15.1686989 12.7781746,14.7781746 L19.8492424,7.70710678 C20.2397667,7.31658249 20.2397667,6.68341751 19.8492424,6.29289322 C19.4587181,5.90236893 18.8255531,5.90236893 18.4350288,6.29289322 L12.0710678,12.6568542 Z"/>
  </defs>
  <use xlink:href="#email-a"/>
</svg>
