<svg xmlns="http://www.w3.org/2000/svg" xmlnsXlink="http://www.w3.org/1999/xlink" width="24" height="24" viewBox="0 0 24 24">
  <defs>
    <path id="favorite-outline-a" d="M11.9999861,4.51761038 L9.64658306,9.28545118 L8.60621184,9.43669527 L4.38673203,10.050102 L8.19345807,13.7601543 L8.01570508,14.7965766 L7.29460046,19.0011117 L12.0004154,16.526953 L12.9311063,17.0162045 L16.7052157,19.0002024 L15.8065141,13.7601543 L16.5595763,13.0262166 L19.6132397,10.0501025 L14.3533892,9.28545118 L11.9999861,4.51761038 Z M12.7124861,1.4425 L15.6814861,7.4575 L22.3194861,8.4225 C22.9704861,8.5175 23.2304861,9.3175 22.7594861,9.7765 L17.9554861,14.4585 L19.0894861,21.0705 C19.2004861,21.7195 18.5194861,22.2135 17.9374861,21.9075 L12.0004861,18.7865 L6.06248611,21.9085 C5.48048611,22.2145 4.79948611,21.7195 4.91048611,21.0705 L6.04448611,14.4585 L1.24048611,9.7765 C0.769486106,9.3175 1.02948611,8.5165 1.68048611,8.4225 L8.31848611,7.4575 L11.2874861,1.4425 C11.5794861,0.8525 12.4214861,0.8525 12.7124861,1.4425 Z"/>
  </defs>
  <use xlink:href="#favorite-outline-a"/>
</svg>
