<svg xmlns="http://www.w3.org/2000/svg" xmlnsXlink="http://www.w3.org/1999/xlink" width="24" height="24" viewBox="0 0 24 24">
  <defs>
    <path id="gallery-a" d="M1,0 L5,0 C5.55228475,-1.01453063e-16 6,0.44771525 6,1 L6,5 C6,5.55228475 5.55228475,6 5,6 L1,6 C0.44771525,6 6.76353751e-17,5.55228475 0,5 L0,1 C-6.76353751e-17,0.44771525 0.44771525,1.01453063e-16 1,0 Z M1,9 L5,9 C5.55228475,9 6,9.44771525 6,10 L6,14 C6,14.5522847 5.55228475,15 5,15 L1,15 C0.44771525,15 6.76353751e-17,14.5522847 0,14 L0,10 C-6.76353751e-17,9.44771525 0.44771525,9 1,9 Z M1,18 L5,18 C5.55228475,18 6,18.4477153 6,19 L6,23 C6,23.5522847 5.55228475,24 5,24 L1,24 C0.44771525,24 6.76353751e-17,23.5522847 0,23 L0,19 C-6.76353751e-17,18.4477153 0.44771525,18 1,18 Z M10,0 L14,0 C14.5522847,-1.01453063e-16 15,0.44771525 15,1 L15,5 C15,5.55228475 14.5522847,6 14,6 L10,6 C9.44771525,6 9,5.55228475 9,5 L9,1 C9,0.44771525 9.44771525,1.01453063e-16 10,0 Z M10,9 L14,9 C14.5522847,9 15,9.44771525 15,10 L15,14 C15,14.5522847 14.5522847,15 14,15 L10,15 C9.44771525,15 9,14.5522847 9,14 L9,10 C9,9.44771525 9.44771525,9 10,9 Z M10,18 L14,18 C14.5522847,18 15,18.4477153 15,19 L15,23 C15,23.5522847 14.5522847,24 14,24 L10,24 C9.44771525,24 9,23.5522847 9,23 L9,19 C9,18.4477153 9.44771525,18 10,18 Z M19,0 L23,0 C23.5522847,-1.01453063e-16 24,0.44771525 24,1 L24,5 C24,5.55228475 23.5522847,6 23,6 L19,6 C18.4477153,6 18,5.55228475 18,5 L18,1 C18,0.44771525 18.4477153,1.01453063e-16 19,0 Z M19,9 L23,9 C23.5522847,9 24,9.44771525 24,10 L24,14 C24,14.5522847 23.5522847,15 23,15 L19,15 C18.4477153,15 18,14.5522847 18,14 L18,10 C18,9.44771525 18.4477153,9 19,9 Z M19,18 L23,18 C23.5522847,18 24,18.4477153 24,19 L24,23 C24,23.5522847 23.5522847,24 23,24 L19,24 C18.4477153,24 18,23.5522847 18,23 L18,19 C18,18.4477153 18.4477153,18 19,18 Z"/>
  </defs>
  <use xlink:href="#gallery-a"/>
</svg>
