<svg xmlns="http://www.w3.org/2000/svg" xmlnsXlink="http://www.w3.org/1999/xlink" width="24" height="24" viewBox="0 0 24 24">
  <defs>
    <path id="link-a" d="M15,8 L15,6 L19,6 C22.3522847,6 25,8.64771525 25,12 C25,15.3522847 22.3522847,18 19,18 L15,18 L15,16 L19,16 C21.2477153,16 23,14.2477153 23,12 C23,9.75228475 21.2477153,8 19,8 L15,8 Z M11,16 L11,18 L7,18 C3.64771525,18 1,15.3522847 1,12 C1,8.64771525 3.64771525,6 7,6 L11,6 L11,8 L7,8 C4.75228475,8 3,9.75228475 3,12 C3,14.2477153 4.75228475,16 7,16 L11,16 Z M8,13 L8,11 L18,11 L18,13 L8,13 Z"/>
  </defs>
  <use transform="rotate(-45 13 12)" xlink:href="#link-a"/>
</svg>
