<svg xmlns="http://www.w3.org/2000/svg" xmlnsXlink="http://www.w3.org/1999/xlink" width="24" height="24" viewBox="0 0 24 24">
  <defs>
    <path id="menu-overlay-a" d="M2,14 C0.8954305,14 0,13.1045695 0,12 C0,10.8954305 0.8954305,10 2,10 C3.1045695,10 4,10.8954305 4,12 C4,13.1045695 3.1045695,14 2,14 Z M12,14 C10.8954305,14 10,13.1045695 10,12 C10,10.8954305 10.8954305,10 12,10 C13.1045695,10 14,10.8954305 14,12 C14,13.1045695 13.1045695,14 12,14 Z M22,14 C20.8954305,14 20,13.1045695 20,12 C20,10.8954305 20.8954305,10 22,10 C23.1045695,10 24,10.8954305 24,12 C24,13.1045695 23.1045695,14 22,14 Z"/>
  </defs>
  <use xlink:href="#menu-overlay-a"/>
</svg>
