<svg xmlns="http://www.w3.org/2000/svg" width="40" height="40" viewBox="0 0 40 40">
  <path fill-rule="evenodd" d="M1,4 L39,4 C39.5522847,4 40,4.44771525 40,5 C40,5.55228475 39.5522847,6 39,6 L1,6 C0.44771525,6 6.76353751e-17,5.55228475 0,5 C-6.76353751e-17,4.44771525 0.44771525,4 1,4 Z M1,32 L39,32 C39.5522847,32 40,32.4477153 40,33 C40,33.5522847 39.5522847,34 39,34 L1,34 C0.44771525,34 6.76353751e-17,33.5522847 0,33 C-6.76353751e-17,32.4477153 0.44771525,32 1,32 Z M1,18 L39,18 C39.5522847,18 40,18.4477153 40,19 C40,19.5522847 39.5522847,20 39,20 L1,20 C0.44771525,20 6.76353751e-17,19.5522847 0,19 C-6.76353751e-17,18.4477153 0.44771525,18 1,18 Z"/>
</svg>
