<svg xmlns="http://www.w3.org/2000/svg" xmlnsXlink="http://www.w3.org/1999/xlink" width="24" height="24" viewBox="0 0 24 24">
  <defs>
    <path id="play-a" d="M12,24 C5.372583,24 0,18.627417 0,12 C0,5.372583 5.372583,0 12,0 C18.627417,0 24,5.372583 24,12 C24,18.627417 18.627417,24 12,24 Z M12,22 C17.5228475,22 22,17.5228475 22,12 C22,6.4771525 17.5228475,2 12,2 C6.4771525,2 2,6.4771525 2,12 C2,17.5228475 6.4771525,22 12,22 Z M10,7 L17,12 L10,17 L10,7 Z"/>
  </defs>
  <g fill="none" fill-rule="evenodd">
    <circle cx="12" cy="12" r="11" fill="#000" fill-opacity=".2" fill-rule="nonzero"/>
    <use fill="#000" fill-rule="nonzero" xlink:href="#play-a"/>
  </g>
</svg>
