<svg xmlns="http://www.w3.org/2000/svg" xmlnsXlink="http://www.w3.org/1999/xlink" width="24" height="24" viewBox="0 0 24 24">
  <defs>
    <path id="plus-a" d="M12,11 L21,11 C21.5522847,11 22,11.4477153 22,12 C22,12.5522847 21.5522847,13 21,13 L12,13 L12,22 C12,22.5522847 11.5522847,23 11,23 C10.4477153,23 10,22.5522847 10,22 L10,13 L1,13 C0.44771525,13 0,12.5522847 0,12 C0,11.4477153 0.44771525,11 1,11 L10,11 L10,2 C10,1.44771525 10.4477153,1 11,1 C11.5522847,1 12,1.44771525 12,2 L12,11 Z"/>
  </defs>
  <use xlink:href="#plus-a"/>
</svg>
