<svg xmlns="http://www.w3.org/2000/svg" width="40" height="40" viewBox="0 0 40 40">
  <path fill-rule="evenodd" d="M25.9086722,25.8903092 L34.7727021,35.7348117 C35.1759139,36.1826238 35.1397583,36.872515 34.6919462,37.2757268 C34.2441341,37.6789386 33.5542429,37.642783 33.1510311,37.1949709 L24.2515041,27.3110449 C21.937612,29.0019326 19.0853616,30 16,30 C8.2680135,30 2,23.7319865 2,16 C2,8.2680135 8.2680135,2 16,2 C23.7319865,2 30,8.2680135 30,16 C30,19.8613231 28.4367803,23.3575366 25.9086722,25.8903092 Z M16,28 C22.627417,28 28,22.627417 28,16 C28,9.372583 22.627417,4 16,4 C9.372583,4 4,9.372583 4,16 C4,22.627417 9.372583,28 16,28 Z"/>
</svg>
