<svg xmlns="http://www.w3.org/2000/svg" xmlnsXlink="http://www.w3.org/1999/xlink" width="24" height="24" viewBox="0 0 24 24">
  <defs>
    <path id="share-a" d="M4,21.000125 L20,21.000125 L20,10.000125 C20,9.44784025 20.4477153,9.000125 21,9.000125 C21.5522847,9.000125 22,9.44784025 22,10.000125 L22,21.000125 C22,22.1046945 21.1045695,23.000125 20,23.000125 L4,23.000125 C2.8954305,23.000125 2,22.1046945 2,21.000125 L2,10.000125 C2,9.44784025 2.44771525,9.000125 3,9.000125 C3.55228475,9.000125 4,9.44784025 4,10.000125 L4,21.000125 Z M11.2783909,1.29325 C11.6774703,0.90225 12.3225297,0.90225 12.7216091,1.29325 L17.7010997,6.17192966 C18.0996334,6.56239497 18.0996334,7.19546434 17.7010997,7.58592966 C17.302566,7.97639497 16.6564152,7.97639497 16.2578814,7.58592966 L13.0206636,4.29770186 L13.0206636,16.00025 C13.0206636,16.55325 12.5634063,17.00025 12,17.00025 C11.4365937,17.00025 10.9793364,16.55325 10.9793364,16.00025 L10.9793364,4.29770186 L7.74211857,7.58592966 C7.34358485,7.97639497 6.69743402,7.97639497 6.29890029,7.58592966 C5.90036657,7.19546434 5.90036657,6.56239497 6.29890029,6.17192966 L11.2783909,1.29325 Z"/>
  </defs>
  <use xlink:href="#share-a"/>
</svg>
