<svg xmlns="http://www.w3.org/2000/svg" xmlnsXlink="http://www.w3.org/1999/xlink" width="24" height="24" viewBox="0 0 24 24">
  <defs>
    <path id="taps-circle-a" d="M12,24 C5.372583,24 0,18.627417 0,12 C0,5.372583 5.372583,0 12,0 C18.627417,0 24,5.372583 24,12 C24,18.627417 18.627417,24 12,24 Z M12,22 C17.5228475,22 22,17.5228475 22,12 C22,6.4771525 17.5228475,2 12,2 C6.4771525,2 2,6.4771525 2,12 C2,17.5228475 6.4771525,22 12,22 Z M17.3644712,17.3644712 L16.3726851,16.3726851 C18.8375527,13.9078175 18.8375527,9.91147748 16.3726851,7.44660988 C13.9078175,4.98174227 9.91147748,4.98174227 7.44660988,7.44660988 C4.98174227,9.91147748 4.98174227,13.9078175 7.44660988,16.3726851 L6.45482374,17.3644712 C3.44220778,14.3518553 3.44220778,9.46743971 6.45482374,6.45482374 C9.46743971,3.44220778 14.3518553,3.44220778 17.3644712,6.45482374 C20.3770872,9.46743971 20.3770872,14.3518553 17.3644712,17.3644712 Z M15.6823815,15.6823815 L14.5934371,14.5934371 C16.0969556,13.0899186 16.0969556,10.6522334 14.5934371,9.14871491 C13.0899186,7.64519641 10.6522334,7.64519641 9.14871491,9.14871491 C7.64519641,10.6522334 7.64519641,13.0899186 9.14871491,14.5934371 L8.05977048,15.6823815 C5.95484458,13.5774556 5.95484458,10.1646964 8.05977048,8.05977048 C10.1646964,5.95484458 13.5774556,5.95484458 15.6823815,8.05977048 C17.7873074,10.1646964 17.7873074,13.5774556 15.6823815,15.6823815 Z"/>
  </defs>
  <g fill="none" fill-rule="evenodd">
    <circle cx="12" cy="12" r="11" fill="#000" fill-opacity=".2" fill-rule="nonzero"/>
    <use fill="#000" fill-rule="nonzero" xlink:href="#taps-circle-a"/>
  </g>
</svg>
