<svg xmlns="http://www.w3.org/2000/svg" xmlnsXlink="http://www.w3.org/1999/xlink" width="24" height="24" viewBox="0 0 24 24">
  <defs>
    <path id="time-a" d="M13,21 C17.9705627,21 22,16.9705627 22,12 C22,7.02943725 17.9705627,3 13,3 C8.02943725,3 4,7.02943725 4,12 C4,16.9705627 8.02943725,21 13,21 Z M13,23 C6.92486775,23 2,18.0751322 2,12 C2,5.92486775 6.92486775,1 13,1 C19.0751322,1 24,5.92486775 24,12 C24,18.0751322 19.0751322,23 13,23 Z M14,12 L18,12 C18.5522847,12 19,12.4477153 19,13 C19,13.5522847 18.5522847,14 18,14 L13,14 C12.4477153,14 12,13.5522847 12,13 L12,6 C12,5.44771525 12.4477153,5 13,5 C13.5522847,5 14,5.44771525 14,6 L14,12 Z"/>
  </defs>
  <use xlink:href="#time-a"/>
</svg>
