<svg xmlns="http://www.w3.org/2000/svg" xmlnsXlink="http://www.w3.org/1999/xlink" width="24" height="24" viewBox="0 0 24 24">
  <defs>
    <path id="world-a" d="M12,0 C5.383,0 0,5.383 0,12 C0,18.617 5.383,24 12,24 C18.617,24 24,18.617 24,12 C24,5.383 18.617,0 12,0 Z M21.949,11 L18.473,11 C18.335,7.79 17.542,4.98 16.332,3.001 C19.395,4.482 21.597,7.468 21.949,11 Z M11,2.3 L11,11 L7.525,11 C7.734,6.531 9.315,3.26 11,2.3 Z M11,13 L11,21.7 C9.315,20.74 7.734,17.469 7.525,13 L11,13 Z M13,21.7 L13,13 L16.475,13 C16.266,17.469 14.685,20.74 13,21.7 Z M13,11 L13,2.3 C14.685,3.26 16.266,6.531 16.475,11 L13,11 Z M7.667,3.001 C6.458,4.98 5.664,7.79 5.526,11 L2.051,11 C2.403,7.468 4.605,4.482 7.667,3.001 Z M2.051,13 L5.527,13 C5.665,16.21 6.458,19.02 7.668,20.999 C4.605,19.518 2.403,16.532 2.051,13 Z M16.333,20.999 C17.542,19.02 18.336,16.21 18.474,13 L21.95,13 C21.597,16.532 19.395,19.518 16.333,20.999 Z"/>
  </defs>
  <use xlink:href="#world-a"/>
</svg>
