<?xml version="1.0" encoding="utf-8"?>
<!-- Generator: Adobe Illustrator 23.0.1, SVG Export Plug-In . SVG Version: 6.00 Build 0)  -->
<svg version="1.1" id="Layer_1" xmlns="http://www.w3.org/2000/svg" xmlns:xlink="http://www.w3.org/1999/xlink" x="0px" y="0px"
	 viewBox="0 0 53.9 53.9" style="enable-background:new 0 0 53.9 53.9;" xml:space="preserve">
<style type="text/css">
	.st0{fill:#A8519F;}
</style>
<title>close</title>
<desc>Created with Sketch.</desc>
<g id="Symbols">
	<g id="close">
		<path id="Page-1" class="st0" d="M24.3,2.5l0.1,21.8L2.5,24.2c-1.5,0-2.8,1.2-2.7,2.7c0,1.5,1.2,2.8,2.7,2.7l21.8,0.1l-0.1,21.8
			c0,1.5,1.2,2.8,2.7,2.7c1.5,0,2.8-1.2,2.7-2.7l0.1-21.8l21.7,0c1.5,0,2.8-1.2,2.7-2.7c-0.1-1.5-1.2-2.8-2.7-2.7l-21.7,0V2.5
			c0-1.5-1.2-2.8-2.7-2.7C25.6-0.2,24.3,1,24.3,2.5L24.3,2.5z"/>
	</g>
</g>
</svg>
