<?xml version="1.0" encoding="UTF-8" standalone="no"?>
<svg width="40px" height="40px" viewBox="0 0 40 40" version="1.1" xmlns="http://www.w3.org/2000/svg" xmlns:xlink="http://www.w3.org/1999/xlink">
    <!-- Generator: Sketch 39.1 (31720) - http://www.bohemiancoding.com/sketch -->
    <title>arrow-right</title>
    <desc>Created with Sketch.</desc>
    <defs></defs>
    <g id="Symbols" stroke="none" stroke-width="1" fill="none" fill-rule="evenodd">
        <g id="arrow-right" fill="#000000">
            <path d="M31.0175439,4.21052632 L15.2982456,19.9298246 L31.0175439,35.7894737 C31.0175438,35.7894745 31.4385965,36.1637404 31.4385965,36.6315789 C31.4385965,37.0058498 31.298247,37.3333319 31.0175439,37.6140351 L29.0526316,39.5789474 C28.7719284,39.8596505 28.4444463,40 28.0701754,40 C27.6959046,40 27.3684225,39.8596505 27.0877193,39.5789474 L8.42105263,20.9122807 C8.14034947,20.6315775 8,20.3040954 8,19.9298246 C8,19.6491214 8.14034947,19.3684225 8.42105263,19.0877193 L27.0877193,0.421052632 C27.3684225,0.140349474 27.6959046,0 28.0701754,0 C28.4444463,0 28.7719284,0.140349474 29.0526316,0.421052632 L31.0175439,2.38596491 C31.298247,2.66666807 31.4385965,2.94736702 31.4385965,3.22807018 C31.4385965,3.60234105 31.298247,3.92982316 31.0175439,4.21052632 Z" id="e" transform="translate(19.719298, 20.000000) rotate(-180.000000) translate(-19.719298, -20.000000) "></path>
        </g>
    </g>
</svg>