<?xml version="1.0" encoding="utf-8"?>
<!-- Generator: Adobe Illustrator 23.0.1, SVG Export Plug-In . SVG Version: 6.00 Build 0)  -->
<svg version="1.1" id="Layer_1" xmlns="http://www.w3.org/2000/svg" xmlns:xlink="http://www.w3.org/1999/xlink" x="0px" y="0px"
	 viewBox="0 0 40 40" style="enable-background:new 0 0 40 40;" xml:space="preserve">
<style type="text/css">
	.st0{fill-rule:evenodd;clip-rule:evenodd;fill:#FFFFFF;}
</style>
<title>arrow-right</title>
<desc>Created with Sketch.</desc>
<g id="Symbols">
	<g id="arrow-right">
		<path id="e" class="st0" d="M8.4,35.8l15.7-15.7L8.4,4.2c0,0-0.4-0.4-0.4-0.8c0-0.4,0.1-0.7,0.4-1l2-2C10.7,0.1,11,0,11.4,0
			s0.7,0.1,1,0.4L31,19.1c0.3,0.3,0.4,0.6,0.4,1c0,0.3-0.1,0.6-0.4,0.8L12.4,39.6c-0.3,0.3-0.6,0.4-1,0.4s-0.7-0.1-1-0.4l-2-2
			C8.1,37.3,8,37.1,8,36.8C8,36.4,8.1,36.1,8.4,35.8z"/>
	</g>
</g>
</svg>
