<?xml version="1.0" encoding="utf-8"?>
<!-- Generator: Adobe Illustrator 23.0.1, SVG Export Plug-In . SVG Version: 6.00 Build 0)  -->
<svg version="1.1" id="Layer_1" xmlns="http://www.w3.org/2000/svg" xmlns:xlink="http://www.w3.org/1999/xlink" x="0px" y="0px"
	 viewBox="0 0 40 40" style="enable-background:new 0 0 40 40;" xml:space="preserve">
<style type="text/css">
	.st0{fill-rule:evenodd;clip-rule:evenodd;fill:#FFFFFF;}
</style>
<title>arrow-left</title>
<desc>Created with Sketch.</desc>
<g id="Symbols">
	<g id="arrow-left">
		<path id="e" class="st0" d="M31,4.2L15.3,19.9L31,35.8c0,0,0.4,0.4,0.4,0.8c0,0.4-0.1,0.7-0.4,1l-2,2c-0.3,0.3-0.6,0.4-1,0.4
			s-0.7-0.1-1-0.4L8.4,20.9c-0.3-0.3-0.4-0.6-0.4-1c0-0.3,0.1-0.6,0.4-0.8L27.1,0.4c0.3-0.3,0.6-0.4,1-0.4s0.7,0.1,1,0.4l2,2
			c0.3,0.3,0.4,0.6,0.4,0.8C31.4,3.6,31.3,3.9,31,4.2z"/>
	</g>
</g>
</svg>
