<?xml version="1.0" encoding="UTF-8" standalone="no"?>
<svg width="40px" height="40px" viewBox="0 0 40 40" version="1.1" xmlns="http://www.w3.org/2000/svg" xmlns:xlink="http://www.w3.org/1999/xlink">
    <!-- Generator: Sketch 39.1 (31720) - http://www.bohemiancoding.com/sketch -->
    <title>arrow-up</title>
    <desc>Created with Sketch.</desc>
    <defs></defs>
    <g id="Symbols" stroke="none" stroke-width="1" fill="none" fill-rule="evenodd">
        <g id="arrow-up" fill="#000000">
            <path d="M20.058651,15.2727273 L4.2228739,30.9912023 C4.22287377,30.9912028 3.83186979,31.4604106 3.28445748,31.4604106 C2.89344868,31.4604106 2.58064633,31.3040094 2.34604106,30.9912023 L0.351906158,29.1143695 C0.11730088,28.8015625 0,28.4496598 0,28.058651 C0,27.6676422 0.11730088,27.3548399 0.351906158,27.1202346 L19.1202346,8.46920821 C19.3336182,8.23632813 19.6676422,8 20.058651,8 C20.3714581,8 20.6587524,8.26055908 20.8797654,8.46920821 L39.5307918,27.1202346 C39.8435988,27.3548399 40,27.6676422 40,28.058651 C40,28.4496598 39.8435988,28.8015625 39.5307918,29.1143695 L37.6539589,30.9912023 C37.3411519,31.3040094 37.0283496,31.4604106 36.7155425,31.4604106 C36.3245337,31.4604106 36.0117314,31.3040094 35.7771261,30.9912023 L20.058651,15.2727273 Z" id="X"></path>
        </g>
    </g>
</svg>