<?xml version="1.0" encoding="UTF-8" standalone="no"?>
<svg width="40px" height="40px" viewBox="0 0 40 40" version="1.1" xmlns="http://www.w3.org/2000/svg" xmlns:xlink="http://www.w3.org/1999/xlink">
    <!-- Generator: Sketch 39.1 (31720) - http://www.bohemiancoding.com/sketch -->
    <title>camera</title>
    <desc>Created with Sketch.</desc>
    <defs></defs>
    <g id="Symbols" stroke="none" stroke-width="1" fill="none" fill-rule="evenodd">
        <g id="camera" fill="#000000">
            <path d="M25.497076,20.4385965 C25.497076,18.8791345 24.9512725,17.5925977 23.8596491,16.5789474 C22.7680257,15.487324 21.4814889,14.9415205 20,14.9415205 C18.5185111,14.9415205 17.2319743,15.487324 16.1403509,16.5789474 C15.0487275,17.5925977 14.502924,18.8791345 14.502924,20.4385965 C14.502924,21.9980585 15.0487275,23.3235813 16.1403509,24.4152047 C17.2319743,25.5068281 18.5185111,26.0526316 20,26.0526316 C21.4814889,26.0526316 22.7680257,25.5068281 23.8596491,24.4152047 C24.9512725,23.3235813 25.497076,21.9980585 25.497076,20.4385965 L25.497076,20.4385965 Z M33.9181287,5 L6.08187135,5 C4.44443626,5 3.00195556,5.54580351 1.75438596,6.6374269 C0.584789474,7.80702339 0,9.21051813 0,10.8479532 L0,30.1461988 C0,31.861607 0.584789474,33.2261158 1.75438596,34.2397661 C2.92398246,35.4093626 4.36646316,35.994152 6.08187135,35.994152 L33.9181287,35.994152 C35.6335368,35.994152 37.0760175,35.4093626 38.245614,34.2397661 C39.4152105,33.2261158 40,31.861607 40,30.1461988 L40,10.8479532 C40,9.21051813 39.4152105,7.80702339 38.245614,6.6374269 C36.9980444,5.54580351 35.5555637,5 33.9181287,5 L33.9181287,5 Z M6.08187135,12.4853801 C4.99024795,12.4853801 4.44444444,11.9395766 4.44444444,10.8479532 C4.44444444,10.3801146 4.6003883,9.99025497 4.9122807,9.67836257 C5.2241731,9.36647018 5.61403275,9.21052632 6.08187135,9.21052632 C6.54970994,9.21052632 6.93956959,9.36647018 7.25146199,9.67836257 C7.56335439,9.99025497 7.71929825,10.3801146 7.71929825,10.8479532 C7.71929825,11.3157918 7.56335439,11.7056515 7.25146199,12.0175439 C6.93956959,12.3294363 6.54970994,12.4853801 6.08187135,12.4853801 L6.08187135,12.4853801 Z M20,29.0935673 C17.5828339,29.0935673 15.4775918,28.1968901 13.6842105,26.4035088 C11.9688023,24.5321544 11.1111111,22.4269123 11.1111111,20.0877193 C11.1111111,17.8264994 11.9688023,15.7602433 13.6842105,13.8888889 C15.3996187,12.1734807 17.5048608,11.3157895 20,11.3157895 C22.4951392,11.3157895 24.6003813,12.1734807 26.3157895,13.8888889 C28.0311977,15.7602433 28.8888889,17.8264994 28.8888889,20.0877193 C28.8888889,22.4269123 28.0311977,24.5321544 26.3157895,26.4035088 C24.5224082,28.1968901 22.4171661,29.0935673 20,29.0935673 L20,29.0935673 Z" id="T"></path>
        </g>
    </g>
</svg>