<?xml version="1.0" encoding="UTF-8" standalone="no"?>
<svg width="40px" height="40px" viewBox="0 0 40 40" version="1.1" xmlns="http://www.w3.org/2000/svg" xmlns:xlink="http://www.w3.org/1999/xlink">
    <!-- Generator: Sketch 39.1 (31720) - http://www.bohemiancoding.com/sketch -->
    <title>clock</title>
    <desc>Created with Sketch.</desc>
    <defs></defs>
    <g id="Symbols" stroke="none" stroke-width="1" fill="none" fill-rule="evenodd">
        <g id="clock" fill="#000000">
            <path d="M18.0128611,18.9323038 L18.0128611,16.3122132 L18.0128611,10.4973804 C18.0128611,9.67040004 18.6786583,9 19.5128611,9 C20.3412882,9 21.0128611,9.6627974 21.0128611,10.4918348 L21.0128611,19.8308828 L22.0512345,20.8692561 L26.1629422,24.9809638 C26.7477056,25.5657273 26.7509603,26.5105614 26.1610898,27.1004318 C25.5753034,27.6862183 24.6345506,27.6912328 24.0527368,27.1044482 L18,21 L18.0128611,18.9323038 Z" id="Combined-Shape"></path>
            <path d="M37,20 C37,10.6111593 29.3888407,3 20,3 C10.6111593,3 3,10.6111593 3,20 C3,29.3888407 10.6111593,37 20,37 C29.3888407,37 37,29.3888407 37,20 Z M0,20 C0,8.954305 8.954305,0 20,0 C31.045695,0 40,8.954305 40,20 C40,31.045695 31.045695,40 20,40 C8.954305,40 0,31.045695 0,20 Z" id="Oval"></path>
        </g>
    </g>
</svg>