<?xml version="1.0" encoding="UTF-8" standalone="no"?>
<svg width="40px" height="40px" viewBox="0 0 40 40" version="1.1" xmlns="http://www.w3.org/2000/svg" xmlns:xlink="http://www.w3.org/1999/xlink">
    <!-- Generator: Sketch 39.1 (31720) - http://www.bohemiancoding.com/sketch -->
    <title>close</title>
    <desc>Created with Sketch.</desc>
    <defs></defs>
    <g id="Symbols" stroke="none" stroke-width="1" fill="none" fill-rule="evenodd">
        <g id="close" fill="#000000">
            <path d="M35.4054054,0.810810811 L20.0569369,16.2731532 L4.70846847,0.810810811 C3.62738739,-0.27027027 1.89765766,-0.27027027 0.924684685,0.810810811 C-0.156396396,1.89189189 -0.156396396,3.62162162 0.924684685,4.59459459 L16.2731532,20.0569369 L0.810810811,35.4054054 C-0.27027027,36.4864865 -0.27027027,38.2162162 0.810810811,39.1891892 C1.89189189,40.2702703 3.62162162,40.2702703 4.59459459,39.1891892 L20.0569369,23.8407207 L35.4054054,39.1891892 C36.4864865,40.2702703 38.2162162,40.2702703 39.1891892,39.1891892 C40.1636036,38.1081081 40.2702703,36.3798198 39.1891892,35.4054054 L23.8407207,20.0569369 L39.1891892,4.70846847 C40.2702703,3.62738739 40.2702703,1.89765766 39.1891892,0.924684685 C38.221982,-0.156396396 36.4864865,-0.156396396 35.4054054,0.810810811 L35.4054054,0.810810811 Z" id="Page-1"></path>
        </g>
    </g>
</svg>