<?xml version="1.0" encoding="utf-8"?>
<!-- Generator: Adobe Illustrator 23.0.1, SVG Export Plug-In . SVG Version: 6.00 Build 0)  -->
<svg version="1.1" id="Layer_1" xmlns="http://www.w3.org/2000/svg" xmlns:xlink="http://www.w3.org/1999/xlink" x="0px" y="0px"
	 viewBox="0 0 40 40" style="enable-background:new 0 0 40 40;" xml:space="preserve">
<style type="text/css">
	.st0{fill:#FFFFFF;}
</style>
<title>close</title>
<desc>Created with Sketch.</desc>
<g id="Symbols">
	<g id="close">
		<path id="Page-1" class="st0" d="M35.4,0.8L20.1,16.3L4.7,0.8c-1.1-1.1-2.8-1.1-3.8,0c-1.1,1.1-1.1,2.8,0,3.8l15.3,15.5L0.8,35.4
			c-1.1,1.1-1.1,2.8,0,3.8c1.1,1.1,2.8,1.1,3.8,0l15.5-15.3l15.3,15.3c1.1,1.1,2.8,1.1,3.8,0c1-1.1,1.1-2.8,0-3.8L23.8,20.1
			L39.2,4.7c1.1-1.1,1.1-2.8,0-3.8C38.2-0.2,36.5-0.2,35.4,0.8L35.4,0.8z"/>
	</g>
</g>
</svg>
