<?xml version="1.0" encoding="UTF-8" standalone="no"?>
<svg width="40px" height="36px" viewBox="0 0 40 36" version="1.1" xmlns="http://www.w3.org/2000/svg" xmlns:xlink="http://www.w3.org/1999/xlink">
    <!-- Generator: Sketch 39.1 (31720) - http://www.bohemiancoding.com/sketch -->
    <title>Page 1</title>
    <desc>Created with Sketch.</desc>
    <defs></defs>
    <g id="Symbols" stroke="none" stroke-width="1" fill="none" fill-rule="evenodd">
        <g id="comment" transform="translate(0.000000, -2.000000)" fill="#000000">
            <path d="M0.300000012,17.8073852 C0.300000012,22.7075217 2.79006255,26.8762347 7.14601483,29.6584196 L6.91642943,29.2013686 C6.70578483,32.14666 5.592988,34.7017684 3.74718453,36.633856 L2.83959434,37.5838725 L4.1491587,37.4776064 C8.76188743,37.103301 12.8162876,35.341175 15.5351948,32.5178532 L15.0856492,32.6629658 C16.7264034,32.9611211 18.3801276,33.1147704 20.05,33.1147704 C31.3121178,33.1147704 39.8,26.8341996 39.8,17.8073852 C39.8,8.78170236 31.3112929,2.5 20.05,2.5 C8.78760727,2.5 0.300000012,8.78019357 0.300000012,17.8073852 Z M20.05,30.5439704 C18.5673068,30.5439704 17.0508003,30.4059269 15.5447239,30.1333136 L14.7156459,29.983817 L14.4523938,29.9363483 L14.2668149,30.129002 L13.683326,30.7347353 C12.0992571,32.3782818 9.93899016,33.6078314 7.40385512,34.3094166 L7.98514083,35.01348 C8.83235324,33.3054287 9.33789983,31.4057585 9.48240196,29.3839034 L9.54913367,28.4508002 L9.57036743,28.1538906 L9.31947582,27.9937046 L8.53065359,27.4900675 C4.87190014,25.15308 2.87080001,21.7199265 2.87080001,17.8051037 C2.87080001,14.1635508 4.52206891,11.0225015 7.66979386,8.69325089 C10.8219848,6.35958775 15.2196209,5.06851852 20.05,5.06851852 C24.8803791,5.06851852 29.2780152,6.35958775 32.4301149,8.69318336 C35.5763283,11.0207448 37.2292,14.1643376 37.2292,17.8051037 C37.2292,21.4446439 35.5754137,24.5919377 32.4300721,26.9210483 C29.2771656,29.253024 24.878953,30.5439704 20.05,30.5439704 Z" id="Page-1"></path>
        </g>
    </g>
</svg>