<?xml version="1.0" encoding="UTF-8" standalone="no"?>
<svg width="40px" height="40px" viewBox="0 0 40 40" version="1.1" xmlns="http://www.w3.org/2000/svg" xmlns:xlink="http://www.w3.org/1999/xlink">
    <!-- Generator: Sketch 39.1 (31720) - http://www.bohemiancoding.com/sketch -->
    <title>facebook</title>
    <desc>Created with Sketch.</desc>
    <defs></defs>
    <g id="Symbols" stroke="none" stroke-width="1" fill="none" fill-rule="evenodd">
        <g id="facebook" fill="#000000">
            <path d="M37.826087,0 L2.17391304,0 C1.5942,0 1.0869587,0.21738913 0.652173913,0.652173913 C0.21738913,1.0869587 0,1.5942 0,2.17391304 L0,37.826087 C0,38.4058 0.21738913,38.9130413 0.652173913,39.3478261 C1.0869587,39.7826109 1.5942,40 2.17391304,40 L21.4130435,40 L21.4130435,24.5652174 L16.1956522,24.5652174 L16.1956522,18.4782609 L21.4130435,18.4782609 L21.4130435,14.0217391 C21.4130435,11.4854946 22.1195582,9.51087663 23.5326087,8.09782609 C24.9456592,6.68477554 26.8115826,5.97826087 29.1304348,5.97826087 C31.1594304,5.97826087 32.7173859,6.08695543 33.8043478,6.30434783 L33.8043478,11.6304348 L30.6521739,11.6304348 C28.6231783,11.6304348 27.6086957,12.6086859 27.6086957,14.5652174 L27.6086957,18.4782609 L33.5869565,18.4782609 L32.826087,24.5652174 L27.6086957,24.5652174 L27.6086957,40 L37.826087,40 C38.4058,40 38.9130413,39.7826109 39.3478261,39.3478261 C39.7826109,38.9130413 40,38.4058 40,37.826087 L40,2.17391304 C40,1.5942 39.7826109,1.0869587 39.3478261,0.652173913 C38.9130413,0.21738913 38.4058,0 37.826087,0 L37.826087,0 Z" id="Facebook-Copy-2"></path>
        </g>
    </g>
</svg>