<?xml version="1.0" encoding="UTF-8" standalone="no"?>
<svg width="40px" height="40px" viewBox="0 0 40 40" version="1.1" xmlns="http://www.w3.org/2000/svg" xmlns:xlink="http://www.w3.org/1999/xlink">
    <!-- Generator: Sketch 39.1 (31720) - http://www.bohemiancoding.com/sketch -->
    <title>fullscreen</title>
    <desc>Created with Sketch.</desc>
    <defs></defs>
    <g id="Symbols" stroke="none" stroke-width="1" fill="none" fill-rule="evenodd">
        <g id="fullscreen" fill="#000000">
            <path d="M8.77192982,0 L1.28654971,0 C0.428845614,0 0,0.428845614 0,1.28654971 L0,8.77192982 C0,9.62963392 0.428845614,10.0584795 1.28654971,10.0584795 L8.77192982,10.0584795 C9.62963392,10.0584795 10.0584795,9.62963392 10.0584795,8.77192982 L10.0584795,1.28654971 C10.0584795,0.428845614 9.62963392,0 8.77192982,0 L8.77192982,0 Z M8.77192982,14.9707602 L1.28654971,14.9707602 C0.428845614,14.9707602 0,15.3996058 0,16.2573099 L0,23.7426901 C0,24.6003942 0.428845614,25.0292398 1.28654971,25.0292398 L8.77192982,25.0292398 C9.62963392,25.0292398 10.0584795,24.6003942 10.0584795,23.7426901 L10.0584795,16.2573099 C10.0584795,15.3996058 9.62963392,14.9707602 8.77192982,14.9707602 L8.77192982,14.9707602 Z M8.77192982,29.9415205 L1.28654971,29.9415205 C0.428845614,29.9415205 0,30.3703661 0,31.2280702 L0,38.7134503 C0,39.5711544 0.428845614,40 1.28654971,40 L8.77192982,40 C9.62963392,40 10.0584795,39.5711544 10.0584795,38.7134503 L10.0584795,31.2280702 C10.0584795,30.3703661 9.62963392,29.9415205 8.77192982,29.9415205 L8.77192982,29.9415205 Z M23.7426901,0 L16.2573099,0 C15.3996058,0 14.9707602,0.428845614 14.9707602,1.28654971 L14.9707602,8.77192982 C14.9707602,9.62963392 15.3996058,10.0584795 16.2573099,10.0584795 L23.7426901,10.0584795 C24.6003942,10.0584795 25.0292398,9.62963392 25.0292398,8.77192982 L25.0292398,1.28654971 C25.0292398,0.428845614 24.6003942,0 23.7426901,0 L23.7426901,0 Z M23.7426901,14.9707602 L16.2573099,14.9707602 C15.3996058,14.9707602 14.9707602,15.3996058 14.9707602,16.2573099 L14.9707602,23.7426901 C14.9707602,24.6003942 15.3996058,25.0292398 16.2573099,25.0292398 L23.7426901,25.0292398 C24.6003942,25.0292398 25.0292398,24.6003942 25.0292398,23.7426901 L25.0292398,16.2573099 C25.0292398,15.3996058 24.6003942,14.9707602 23.7426901,14.9707602 L23.7426901,14.9707602 Z M23.7426901,29.9415205 L16.2573099,29.9415205 C15.3996058,29.9415205 14.9707602,30.3703661 14.9707602,31.2280702 L14.9707602,38.7134503 C14.9707602,39.5711544 15.3996058,40 16.2573099,40 L23.7426901,40 C24.6003942,40 25.0292398,39.5711544 25.0292398,38.7134503 L25.0292398,31.2280702 C25.0292398,30.3703661 24.6003942,29.9415205 23.7426901,29.9415205 L23.7426901,29.9415205 Z M38.7134503,0 L31.2280702,0 C30.3703661,0 29.9415205,0.428845614 29.9415205,1.28654971 L29.9415205,8.77192982 C29.9415205,9.62963392 30.3703661,10.0584795 31.2280702,10.0584795 L38.7134503,10.0584795 C39.5711544,10.0584795 40,9.62963392 40,8.77192982 L40,1.28654971 C40,0.428845614 39.5711544,0 38.7134503,0 L38.7134503,0 Z M38.7134503,14.9707602 L31.2280702,14.9707602 C30.3703661,14.9707602 29.9415205,15.3996058 29.9415205,16.2573099 L29.9415205,23.7426901 C29.9415205,24.6003942 30.3703661,25.0292398 31.2280702,25.0292398 L38.7134503,25.0292398 C39.5711544,25.0292398 40,24.6003942 40,23.7426901 L40,16.2573099 C40,15.3996058 39.5711544,14.9707602 38.7134503,14.9707602 L38.7134503,14.9707602 Z M38.7134503,29.9415205 L31.2280702,29.9415205 C30.3703661,29.9415205 29.9415205,30.3703661 29.9415205,31.2280702 L29.9415205,38.7134503 C29.9415205,39.5711544 30.3703661,40 31.2280702,40 L38.7134503,40 C39.5711544,40 40,39.5711544 40,38.7134503 L40,31.2280702 C40,30.3703661 39.5711544,29.9415205 38.7134503,29.9415205 L38.7134503,29.9415205 Z" id="3"></path>
        </g>
    </g>
</svg>