<svg xmlns="http://www.w3.org/2000/svg" xmlns:xlink="http://www.w3.org/1999/xlink" width="40" height="40" viewBox="0 0 40 40">
    <path fill="#000" fill-rule="nonzero" d="M37.647 22.555c.37-2.42 2.487-5.042 1.849-7.563-.639-2.521-3.731-3.832-5.177-5.782-1.512-2.017-1.916-5.378-4.033-6.655-2.152-1.278-5.278-.068-7.765-.437-2.42-.37-5.042-2.488-7.563-1.85-2.521.64-3.832 3.766-5.815 5.211-2.017 1.513-5.378 1.916-6.656 4.034-1.277 2.117-.067 5.277-.437 7.764-.37 2.42-2.487 5.042-1.848 7.563.638 2.521 3.73 3.832 5.176 5.782C6.891 32.639 7.294 36 9.412 37.277c2.117 1.278 5.277.068 7.764.437 2.42.37 5.042 2.488 7.563 1.849 2.522-.639 3.832-3.731 5.782-5.176 2.017-1.513 5.378-1.916 6.655-4.034 1.311-2.185.101-5.311.471-7.798zM23.9 36.067c-8.907 2.252-17.983-3.16-20.202-12.1C1.445 15.024 6.891 5.982 15.798 3.73 24.74 1.48 33.782 6.924 36.034 15.866c2.252 8.94-3.194 17.983-12.135 20.201zM19.866 4.168C11.16 4.168 4.1 11.227 4.1 19.933s7.059 15.764 15.765 15.764c8.705 0 15.764-7.058 15.764-15.764S28.571 4.168 19.866 4.168zM18.353 16.37c-1.177-1.513 1.21-3.26 1.513-3.462.302.235 2.689 1.916 1.512 3.462 0 0 1.177.1.706 1.21-.235.605-1.176.538-1.143 1.21 0 .067.101 1.176.235 1.31 0 0-.571-.1-1.277-.1-.773 0-1.31.1-1.277.1.1-.2.235-1.243.235-1.31.034-.706-.907-.639-1.143-1.21-.538-1.11.639-1.21.639-1.21zm6.857 8.168c-.907 1.849-2.252 2.42-3.092 2.386 0 0 1.479-1.95.672-2.487-1.378-.47-4.437-.47-5.849 0-.84.403.672 2.487.672 2.487-.806.068-2.15-.537-3.092-2.386-.941-1.849-4.403-9.009-4.403-9.009l.235-.1c.975-.068 3.361.403 3.361 2.823 1.815-.807 2.824 1.11 1.95 2.252-1.009 1.345-.538 2.488 1.11 1.95.806-.27 1.949-.404 3.092-.404 1.176 0 2.319.135 3.126.404 1.68.571 2.084-.605 1.109-1.95-.874-1.21.134-3.059 1.95-2.252 0-2.42 2.42-2.857 3.36-2.823l.236.1c-.034-.033-3.496 7.126-4.437 9.009z"/>
</svg>
