<?xml version="1.0" encoding="UTF-8" standalone="no"?>
<svg width="40px" height="40px" viewBox="0 0 40 40" version="1.1" xmlns="http://www.w3.org/2000/svg" xmlns:xlink="http://www.w3.org/1999/xlink">
    <!-- Generator: Sketch 39.1 (31720) - http://www.bohemiancoding.com/sketch -->
    <title>instagram</title>
    <desc>Created with Sketch.</desc>
    <defs></defs>
    <g id="Symbols" stroke="none" stroke-width="1" fill="none" fill-rule="evenodd">
        <g id="instagram" fill="#000000">
            <path d="M19.8425197,3.62204724 C23.7795472,3.62204724 26.4566858,3.6482937 27.8740157,3.7007874 C29.4488268,3.7532811 30.6824102,3.98949921 31.5748031,4.40944882 C32.4147024,4.72441102 33.1758496,5.2230937 33.8582677,5.90551181 C34.4881921,6.58792992 34.9606283,7.34907717 35.2755906,8.18897638 C35.6955402,8.97638189 35.9317583,10.1837189 35.984252,11.8110236 C36.0892394,14.6456835 36.1417323,17.322822 36.1417323,19.8425197 C36.1417323,22.3622173 36.0892394,25.0393559 35.984252,27.8740157 C35.9317583,29.3963331 35.6955402,30.6299165 35.2755906,31.5748031 C35.013122,32.309715 34.5406858,33.0708622 33.8582677,33.8582677 C33.280837,34.4356984 32.5196898,34.9343811 31.5748031,35.3543307 C30.4724354,35.7217866 29.238852,35.9317583 27.8740157,35.984252 C25.0393559,36.0892394 22.3622173,36.1417323 19.8425197,36.1417323 C17.322822,36.1417323 14.6456835,36.0892394 11.8110236,35.984252 C10.4461874,35.9317583 9.21260394,35.7217866 8.11023622,35.3543307 C7.16534961,34.9343811 6.40420236,34.4356984 5.82677165,33.8582677 C5.14435354,33.0708622 4.67191732,32.309715 4.40944882,31.5748031 C3.98949921,30.6299165 3.7532811,29.3963331 3.7007874,27.8740157 C3.5958,25.0393559 3.54330709,22.3622173 3.54330709,19.8425197 C3.54330709,17.322822 3.5958,14.6456835 3.7007874,11.8110236 C3.7532811,10.1837189 3.98949921,8.97638189 4.40944882,8.18897638 C4.72441102,7.34907717 5.19684724,6.58792992 5.82677165,5.90551181 C6.50918976,5.2230937 7.27033701,4.72441102 8.11023622,4.40944882 C9.00262913,3.98949921 10.2362126,3.7532811 11.8110236,3.7007874 C13.2283535,3.6482937 15.9054921,3.62204724 19.8425197,3.62204724 L19.8425197,3.62204724 Z M19.8425197,0 C15.8005047,0 13.0708732,0.0524929134 11.6535433,0.157480315 C9.81626378,0.209974016 8.21522992,0.498685039 6.8503937,1.02362205 C5.43306378,1.60105276 4.25197323,2.3622 3.30708661,3.30708661 C2.4146937,4.19947953 1.65354646,5.38057008 1.02362205,6.8503937 C0.498685039,8.21522992 0.209974016,9.81626378 0.157480315,11.6535433 C0.0524929134,13.0708732 0,15.8005047 0,19.8425197 C0,23.8845346 0.0524929134,26.6141661 0.157480315,28.0314961 C0.209974016,29.8687756 0.498685039,31.4698094 1.02362205,32.8346457 C1.60105276,34.2519756 2.3622,35.4330661 3.30708661,36.3779528 C4.19947953,37.2703457 5.38057008,38.0314929 6.8503937,38.6614173 C8.16273622,39.1338606 9.76377008,39.4488181 11.6535433,39.6062992 C13.0708732,39.6587929 15.8005047,39.6850394 19.8425197,39.6850394 C23.8845346,39.6850394 26.6141661,39.6587929 28.0314961,39.6062992 C29.9212693,39.4488181 31.5223031,39.1338606 32.8346457,38.6614173 C34.2519756,38.0839866 35.4330661,37.3228394 36.3779528,36.3779528 C37.3228394,35.4330661 38.0839866,34.2519756 38.6614173,32.8346457 C39.1338606,31.5223031 39.4488181,29.9212693 39.6062992,28.0314961 C39.6587929,26.6141661 39.6850394,23.8845346 39.6850394,19.8425197 C39.6850394,15.8005047 39.6587929,13.0708732 39.6062992,11.6535433 C39.4488181,9.76377008 39.1338606,8.16273622 38.6614173,6.8503937 C38.188974,5.53805118 37.4278268,4.35696063 36.3779528,3.30708661 C35.4330661,2.3622 34.2519756,1.60105276 32.8346457,1.02362205 C31.4698094,0.498685039 29.8687756,0.209974016 28.0314961,0.157480315 C26.6141661,0.0524929134 23.8845346,0 19.8425197,0 L19.8425197,0 Z M19.8425197,9.68503937 C17.0603535,9.68503937 14.671926,10.6824047 12.6771654,12.6771654 C10.6824047,14.671926 9.68503937,17.0603535 9.68503937,19.8425197 C9.68503937,22.6771795 10.6824047,25.0787303 12.6771654,27.0472441 C14.671926,29.0157579 17.0603535,30 19.8425197,30 C22.6246858,30 25.0131134,29.0026346 27.007874,27.007874 C29.0026346,25.0131134 30,22.6246858 30,19.8425197 C30,17.0603535 29.0026346,14.671926 27.007874,12.6771654 C25.0131134,10.6824047 22.6246858,9.68503937 19.8425197,9.68503937 L19.8425197,9.68503937 Z M19.8425197,26.4566929 C18.0577339,26.4566929 16.5091929,25.8005315 15.1968504,24.488189 C13.8845079,23.1758465 13.2283465,21.6273055 13.2283465,19.8425197 C13.2283465,18.0577339 13.8845079,16.5091929 15.1968504,15.1968504 C16.5091929,13.8845079 18.0577339,13.2283465 19.8425197,13.2283465 C21.6273055,13.2283465 23.1758465,13.8845079 24.488189,15.1968504 C25.8005315,16.5091929 26.4566929,18.0577339 26.4566929,19.8425197 C26.4566929,21.6273055 25.8005315,23.1758465 24.488189,24.488189 C23.1758465,25.8005315 21.6273055,26.4566929 19.8425197,26.4566929 L19.8425197,26.4566929 Z M32.8346457,9.29133858 C32.8346457,8.60892047 32.5984276,8.03149843 32.1259843,7.55905512 C31.6535409,7.08661181 31.1023654,6.8503937 30.4724409,6.8503937 C29.7900228,6.8503937 29.2126008,7.08661181 28.7401575,7.55905512 C28.2677142,8.03149843 28.0314961,8.60892047 28.0314961,9.29133858 C28.0314961,9.92126299 28.2677142,10.4724386 28.7401575,10.9448819 C29.2126008,11.4173252 29.7900228,11.6535433 30.4724409,11.6535433 C31.1023654,11.6535433 31.6535409,11.4173252 32.1259843,10.9448819 C32.5984276,10.4724386 32.8346457,9.92126299 32.8346457,9.29133858 L32.8346457,9.29133858 Z" id="G"></path>
        </g>
    </g>
</svg>