<?xml version="1.0" encoding="UTF-8" standalone="no"?>
<svg width="40px" height="40px" viewBox="0 0 40 40" version="1.1" xmlns="http://www.w3.org/2000/svg" xmlns:xlink="http://www.w3.org/1999/xlink">
    <!-- Generator: Sketch 39.1 (31720) - http://www.bohemiancoding.com/sketch -->
    <title>link</title>
    <desc>Created with Sketch.</desc>
    <defs></defs>
    <g id="Symbols" stroke="none" stroke-width="1" fill="none" fill-rule="evenodd">
        <g id="link" fill="#000000">
            <g id="Page-1">
                <path d="M22.1126761,26.4788732 C20,26.4788732 17.8873239,25.68 16.291831,24.084507 C15.6338028,23.4264789 15.6338028,22.348169 16.291831,21.6901408 C16.9498592,21.0321127 18.028169,21.0321127 18.64,21.6901408 C20.5656338,23.6157746 23.6642254,23.6157746 25.5876056,21.6901408 L35.1650704,12.1126761 C37.0907042,10.1870423 37.0907042,7.0884507 35.1650704,5.16507042 C33.0039437,3.09859155 29.9053521,3.09859155 27.9819718,4.97577465 L23.4749296,9.4828169 C22.8169014,10.1408451 21.7385915,10.1408451 21.0805634,9.4828169 C20.4225352,8.82478873 20.4225352,7.74647887 21.0805634,7.13464789 L25.5876056,2.62985915 C28.7808451,-0.609577465 34.0383099,-0.609577465 37.2777465,2.62985915 C40.7042254,6.05633803 40.7042254,11.2676056 37.4647887,14.5070423 L27.9335211,24.0383099 C26.3380282,25.68 24.2253521,26.4788732 22.1126761,26.4788732 L22.1126761,26.4788732 Z" id="Fill-1"></path>
                <path d="M8.73239437,39.8129577 C6.61971831,39.8129577 4.50704225,39.0140845 2.9115493,37.4185915 C1.12676056,35.68 0.281690141,33.6157746 0.281690141,31.3622535 C0.281690141,29.1549296 1.12676056,27.0907042 2.67605634,25.5414085 L12.2535211,15.9639437 C15.4929577,12.7707042 20.7042254,12.724507 23.943662,15.9639437 C24.6016901,16.6219718 24.6016901,17.7002817 23.943662,18.3121127 C23.2856338,18.9701408 22.2073239,18.9701408 21.595493,18.3121127 C19.6698592,16.3864789 16.5712676,16.3864789 14.6478873,18.3121127 L5.07042254,27.9335211 C3.14478873,29.8591549 3.14478873,32.9577465 5.07042254,34.8811268 C7.18309859,36.9938028 10.2816901,36.9938028 12.2073239,35.068169 L16.7143662,30.5611268 C17.3723944,29.9030986 18.4507042,29.9030986 19.0625352,30.5611268 C19.7205634,31.2191549 19.7205634,32.2974648 19.0625352,32.9092958 L14.555493,37.416338 C12.9577465,39.0140845 10.8450704,39.8129577 8.73239437,39.8129577 L8.73239437,39.8129577 Z" id="Fill-2"></path>
            </g>
        </g>
    </g>
</svg>