<?xml version="1.0" encoding="UTF-8" standalone="no"?>
<svg width="40px" height="40px" viewBox="0 0 40 40" version="1.1" xmlns="http://www.w3.org/2000/svg" xmlns:xlink="http://www.w3.org/1999/xlink">
    <!-- Generator: Sketch 39.1 (31720) - http://www.bohemiancoding.com/sketch -->
    <title>muted</title>
    <desc>Created with Sketch.</desc>
    <defs></defs>
    <g id="Symbols" stroke="none" stroke-width="1" fill="none" fill-rule="evenodd">
        <g id="muted" fill="#000000">
            <path d="M18.8172677,4.73997327 C17.7651141,5.54932217 16.1464406,6.7633273 13.9611986,8.38202508 C11.7759566,10.0007229 10.1572831,11.214728 9.10512953,12.0240769 L2.79223972,12.0240769 C1.98289083,12.0240769 1.31518801,12.2871113 0.789111226,12.8131881 C0.263034445,13.3392649 0,14.0069677 0,14.8163166 L0,25.3782669 C0,26.1876158 0.263034445,26.8553186 0.789111226,27.3813954 C1.31518801,27.9074722 1.98289083,28.1705066 2.79223972,28.1705066 L9.10512953,28.1705066 C11.2094367,29.7892044 14.4467837,32.2172147 18.8172677,35.4546102 C19.302877,35.8592847 19.7884791,36.1020857 20.2740884,36.1830206 C20.7596978,36.2639555 21.1643661,36.1627884 21.4881057,35.8795163 C21.8118453,35.5962442 21.9737126,35.1308755 21.9737126,34.4833964 L21.9737126,5.83258882 C21.9737126,4.86137014 21.6297445,4.274601 20.9417979,4.07226377 C20.2538514,3.86992655 19.5456817,4.09249416 18.8172677,4.73997327 L18.8172677,4.73997327 Z M35.4493043,20.2793943 L39.6983648,16.0303339 C40.1030392,15.6256594 40.1030392,15.3019247 39.6983648,15.0591201 C39.3746252,14.6544456 39.0913573,14.6544456 38.8485527,15.0591201 L34.4780905,19.3081805 L30.2290301,15.0591201 C29.9052905,14.7353805 29.5815558,14.7353805 29.2578162,15.0591201 C29.0150116,15.3019247 29.0150116,15.6256594 29.2578162,16.0303339 L33.6282784,20.2793943 L29.2578162,24.5284548 C29.0150116,24.9331292 29.0150116,25.2568639 29.2578162,25.4996686 C29.419686,25.6615384 29.5815534,25.7424721 29.7434231,25.7424721 C29.9052929,25.7424721 30.0671603,25.6615384 30.2290301,25.4996686 L34.4780905,21.2506082 L38.8485527,25.4996686 C39.0104225,25.6615384 39.1722898,25.7424721 39.3341596,25.7424721 L39.8197665,25.4996686 C40.0625712,25.2568639 40.0625712,24.9331292 39.8197665,24.5284548 L35.4493043,20.2793943 Z" id="a"></path>
        </g>
    </g>
</svg>