<?xml version="1.0" encoding="UTF-8" standalone="no"?>
<svg width="40px" height="40px" viewBox="0 0 40 40" version="1.1" xmlns="http://www.w3.org/2000/svg" xmlns:xlink="http://www.w3.org/1999/xlink">
    <!-- Generator: Sketch 39.1 (31720) - http://www.bohemiancoding.com/sketch -->
    <title>pinterest</title>
    <desc>Created with Sketch.</desc>
    <defs></defs>
    <g id="Symbols" stroke="none" stroke-width="1" fill="none" fill-rule="evenodd">
        <g id="pinterest" fill="#000000">
            <path d="M5.96491228,5.96491228 C1.98828421,9.86356725 0,14.541883 0,20 C0,23.898655 1.09160702,27.5633357 3.2748538,30.994152 C5.53607368,34.3469953 8.46002105,36.7641251 12.0467836,38.245614 C11.8908374,36.4522327 11.9688094,34.9317801 12.2807018,33.6842105 L14.8538012,22.8070175 C14.4639357,21.7933673 14.2690058,20.7407462 14.2690058,19.6491228 C14.2690058,18.0896608 14.6588655,16.8810959 15.4385965,16.0233918 C16.1403544,15.0097415 17.0370316,14.502924 18.128655,14.502924 C19.9220363,14.502924 20.8187135,15.5165591 20.8187135,17.5438596 C20.8187135,18.3235906 20.5458117,19.5321556 20,21.1695906 C19.8440538,21.6374292 19.6881099,22.1442468 19.5321637,22.6900585 C19.3762175,23.2358702 19.2592596,23.6452228 19.1812865,23.9181287 C19.1033135,24.1910345 19.0253415,24.4054573 18.9473684,24.5614035 C18.7134491,25.5750538 18.9473649,26.471731 19.6491228,27.251462 C20.2729076,28.031193 21.1305988,28.4210526 22.2222222,28.4210526 C24.0935766,28.4210526 25.6140292,27.4074175 26.7836257,25.380117 C27.9532222,23.2748433 28.5380117,20.7407556 28.5380117,17.7777778 C28.5380117,15.594531 27.7972784,13.7621906 26.3157895,12.2807018 C24.7563275,10.877186 22.7290573,10.1754386 20.2339181,10.1754386 C17.2709404,10.1754386 14.8927965,11.1111018 13.0994152,12.9824561 C11.3060339,14.9317836 10.4093567,17.1539836 10.4093567,19.6491228 C10.4093567,21.2085848 10.8382023,22.5341076 11.6959064,23.625731 C11.9298257,24.0155965 12.0467836,24.3664702 12.0467836,24.6783626 C11.8908374,24.8343088 11.8128655,25.1072105 11.8128655,25.497076 L11.5789474,26.4327485 C11.5789474,26.9005871 11.2670596,27.056531 10.6432749,26.9005848 C7.91421637,25.7309883 6.5497076,23.1579146 6.5497076,19.1812865 C6.5497076,15.9843895 7.83624444,13.0994281 10.4093567,10.5263158 C12.9044959,8.03117661 16.3742468,6.78362573 20.8187135,6.78362573 C24.5614222,6.78362573 27.5633415,7.91421871 29.8245614,10.1754386 C32.1637544,12.5146316 33.3333333,15.2046632 33.3333333,18.245614 C33.3333333,22.2222421 32.3586842,25.4580772 30.4093567,27.9532164 C28.3820561,30.6043018 25.7699965,31.9298246 22.5730994,31.9298246 C21.7153953,31.9298246 20.7407462,31.6569228 19.6491228,31.1111111 C18.7914187,30.6432725 18.1676433,30.058483 17.7777778,29.3567251 C16.9980468,32.3197029 16.5302152,34.1520433 16.374269,34.8538012 C15.9064304,36.3352901 15.204683,37.7777708 14.2690058,39.1812865 C16.6081988,39.7270982 18.5185111,40 20,40 C25.458117,40 30.1364327,38.0117158 34.0350877,34.0350877 C38.0117158,30.1364327 40,25.458117 40,20 C40,14.541883 38.0117158,9.86356725 34.0350877,5.96491228 C30.1364327,1.98828421 25.458117,0 20,0 C14.541883,0 9.86356725,1.98828421 5.96491228,5.96491228 L5.96491228,5.96491228 Z" id="Path"></path>
        </g>
    </g>
</svg>