<?xml version="1.0" encoding="UTF-8" standalone="no"?>
<svg width="40px" height="40px" viewBox="0 0 40 40" version="1.1" xmlns="http://www.w3.org/2000/svg" xmlns:xlink="http://www.w3.org/1999/xlink">
    <!-- Generator: Sketch 39.1 (31720) - http://www.bohemiancoding.com/sketch -->
    <title>play</title>
    <desc>Created with Sketch.</desc>
    <defs></defs>
    <g id="Symbols" stroke="none" stroke-width="1" fill="none" fill-rule="evenodd">
        <g id="play" fill="#000000">
            <path d="M20.058651,0 C14.5063261,0 9.77519062,1.95501466 5.86510264,5.86510264 C1.95501466,9.77519062 0,14.5063261 0,20.058651 C0,25.5327742 1.95501466,30.2248094 5.86510264,34.1348974 C9.77519062,38.0449853 14.5063261,40 20.058651,40 C25.5327742,40 30.2248094,38.0449853 34.1348974,34.1348974 C38.0449853,30.2248094 40,25.5327742 40,20.058651 C40,14.5063261 38.0449853,9.77519062 34.1348974,5.86510264 C30.2248094,1.95501466 25.5327742,0 20.058651,0 L20.058651,0 Z M20.058651,38.4750733 C14.9755367,38.4750733 10.6354041,36.6764598 7.03812317,33.0791789 C3.44084223,29.4818979 1.64222874,25.1417654 1.64222874,20.058651 C1.64222874,14.8973349 3.44084223,10.5572023 7.03812317,7.03812317 C10.5572023,3.44084223 14.8973349,1.64222874 20.058651,1.64222874 C25.1417654,1.64222874 29.4818979,3.44084223 33.0791789,7.03812317 C36.5982581,10.5572023 38.3577713,14.8973349 38.3577713,20.058651 C38.3577713,25.0635636 36.5982581,29.4036962 33.0791789,33.0791789 C29.3254944,36.6764598 24.9853619,38.4750733 20.058651,38.4750733 L20.058651,38.4750733 Z M15.1319648,28.3870968 L29.5601173,20.058651 L15.1319648,11.6129032 L15.1319648,28.3870968 Z" id="S"></path>
        </g>
    </g>
</svg>