<?xml version="1.0" encoding="UTF-8" standalone="no"?>
<svg width="40px" height="40px" viewBox="0 0 40 40" version="1.1" xmlns="http://www.w3.org/2000/svg" xmlns:xlink="http://www.w3.org/1999/xlink">
    <!-- Generator: Sketch 39.1 (31720) - http://www.bohemiancoding.com/sketch -->
    <title>plus</title>
    <desc>Created with Sketch.</desc>
    <defs></defs>
    <g id="Symbols" stroke="none" stroke-width="1" fill="none" fill-rule="evenodd">
        <g id="plus" fill="#000000">
            <path d="M21.2865497,10.0584795 L18.7134503,10.0584795 L18.7134503,18.7134503 L10.0584795,18.7134503 L10.0584795,21.2865497 L18.7134503,21.2865497 L18.7134503,29.9415205 L21.2865497,29.9415205 L21.2865497,21.2865497 L29.9415205,21.2865497 L29.9415205,18.7134503 L21.2865497,18.7134503 L21.2865497,10.0584795 Z M20,0 C14.6198561,0 9.90255439,1.94929825 5.84795322,5.84795322 C1.94929825,9.90255439 0,14.6198561 0,20 C0,25.3801439 1.94929825,30.0974456 5.84795322,34.1520468 C9.90255439,38.0507018 14.6198561,40 20,40 C25.3801439,40 30.0974456,38.0507018 34.1520468,34.1520468 C38.0507018,30.0974456 40,25.3801439 40,20 C40,14.6198561 38.0507018,9.90255439 34.1520468,5.84795322 C30.0974456,1.94929825 25.3801439,0 20,0 L20,0 Z M20,36.8421053 C15.4775602,36.8421053 11.5009918,35.2046947 8.07017544,31.9298246 C4.79530526,28.5769813 3.15789474,24.6004129 3.15789474,20 C3.15789474,15.4775602 4.79530526,11.5009918 8.07017544,8.07017544 C11.5009918,4.79530526 15.4775602,3.15789474 20,3.15789474 C24.5224398,3.15789474 28.4990082,4.79530526 31.9298246,8.07017544 C35.2046947,11.5009918 36.8421053,15.4775602 36.8421053,20 C36.8421053,24.5224398 35.2046947,28.4990082 31.9298246,31.9298246 C28.4990082,35.2046947 24.5224398,36.8421053 20,36.8421053 L20,36.8421053 Z" id="6"></path>
        </g>
    </g>
</svg>