<?xml version="1.0" encoding="UTF-8" standalone="no"?>
<svg width="40px" height="40px" viewBox="0 0 40 40" version="1.1" xmlns="http://www.w3.org/2000/svg" xmlns:xlink="http://www.w3.org/1999/xlink">
    <!-- Generator: Sketch 39.1 (31720) - http://www.bohemiancoding.com/sketch -->
    <title>search</title>
    <desc>Created with Sketch.</desc>
    <defs></defs>
    <g id="Symbols" stroke="none" stroke-width="1" fill="none" fill-rule="evenodd">
        <g id="search" fill="#000000">
            <path d="M39.4837486,36.9950574 L29.6098511,27.1280914 C34.9008831,20.5911253 34.5040557,10.9523207 28.4343871,4.87572063 C25.2846057,1.73287074 21.1031887,0 16.6514437,0 C12.2043198,0 8.01885934,1.73287074 4.87369895,4.87572063 C-1.62456632,11.3739859 -1.62456632,21.940454 4.87369895,28.4364088 C8.01885934,31.5861902 12.2043198,33.317328 16.6514437,33.317328 C20.5053482,33.317328 24.1628607,32.013054 27.1231816,29.6188043 L36.9924581,39.4903912 C37.333256,39.8358101 37.7866905,40.0050538 38.2337711,40.0050538 C38.6872056,40.0050538 39.1383297,39.8334996 39.4860591,39.4903912 C40.1716982,38.8001311 40.1716982,37.6853175 39.4837486,36.9950574 L39.4837486,36.9950574 Z M7.36441182,25.9456959 C2.24493404,20.8262181 2.24493404,12.4911099 7.36441182,7.37163212 C9.84646034,4.8895836 13.1429581,3.52408146 16.6514437,3.52408146 C20.1645503,3.52408146 23.4587376,4.8895836 25.9430966,7.37163212 C31.058531,12.4911099 31.058531,20.8262181 25.9430966,25.9456959 C23.4610481,28.425434 20.1645503,29.792669 16.6514437,29.792669 C13.1429581,29.792669 9.84646034,28.425434 7.36441182,25.9456959 L7.36441182,25.9456959 Z" id="Page-1"></path>
        </g>
    </g>
</svg>