<?xml version="1.0" encoding="UTF-8" standalone="no"?>
<svg width="40px" height="40px" viewBox="0 0 40 40" version="1.1" xmlns="http://www.w3.org/2000/svg" xmlns:xlink="http://www.w3.org/1999/xlink">
    <!-- Generator: Sketch 39.1 (31720) - http://www.bohemiancoding.com/sketch -->
    <title>share</title>
    <desc>Created with Sketch.</desc>
    <defs></defs>
    <g id="Symbols" stroke="none" stroke-width="1" fill="none" fill-rule="evenodd">
        <g id="share" fill="#000000">
            <path d="M6.24295897,16.5476757 L6.24295897,36.757041 L33.0212492,36.757041 L33.0212492,16.5476757 C33.0212492,15.6107198 33.7899169,14.9261962 34.6427287,14.9261962 C35.5796846,14.9261962 36.2642082,15.6948639 36.2642082,16.5476757 L36.2642082,38.3785205 C36.2642082,39.3154764 35.4955405,40 34.6427287,40 L4.62147949,40 C3.6845236,40 3,39.2313323 3,38.3785205 L3,16.5476757 C3,15.6107198 3.76866769,14.9261962 4.62147949,14.9261962 C5.47429128,14.9261962 6.24295897,15.6107198 6.24295897,16.5476757 L6.24295897,16.5476757 Z M19.6298299,29.5922849 C20.5667858,29.5922849 21.2513094,28.8247543 21.2513094,27.9719425 L21.2513094,5.62941064 L26.3681802,10.7462814 C26.710442,11.0885432 27.1368479,11.2568314 27.5632538,11.2568314 C27.9896597,11.2568314 28.4160656,11.0885432 28.7571903,10.7462814 C29.4417139,10.0628949 29.4417139,9.0406578 28.7571903,8.44596371 L20.8249035,0.512539887 C20.1403799,-0.170846629 19.1192799,-0.170846629 18.5234488,0.512539887 L10.591162,8.44596371 C9.90663843,9.12935023 9.90663843,10.1515873 10.591162,10.7462814 C11.2745485,11.430805 12.2967856,11.430805 12.8914797,10.7462814 L18.0083504,5.62941064 L18.0083504,27.9719425 C18.0083504,28.9134467 18.692874,29.5922849 19.6298299,29.5922849 L19.6298299,29.5922849 Z" id="Page-1"></path>
        </g>
    </g>
</svg>