<?xml version="1.0" encoding="UTF-8" standalone="no"?>
<svg width="40px" height="40px" viewBox="0 0 40 40" version="1.1" xmlns="http://www.w3.org/2000/svg" xmlns:xlink="http://www.w3.org/1999/xlink">
    <!-- Generator: Sketch 39.1 (31720) - http://www.bohemiancoding.com/sketch -->
    <title>snapchat</title>
    <desc>Created with Sketch.</desc>
    <defs>
        <polygon id="path-1" points="39.9654825 0 0 0 0 37.7775974 39.9654825 37.7775974 39.9654825 0"></polygon>
    </defs>
    <g id="Symbols" stroke="none" stroke-width="1" fill="none" fill-rule="evenodd">
        <g id="snapchat">
            <g id="Page-1" transform="translate(0.000000, 1.000000)">
                <mask id="mask-2" fill="white">
                    <use xlink:href="#path-1"></use>
                </mask>
                <g id="Clip-2"></g>
                <path d="M38.6517764,28.9344506 C35.4726075,27.6795723 32.4973259,25.1309111 31.2320298,22.5784785 C30.8646519,21.8374348 30.7483232,21.3265116 30.7816257,20.6001564 C30.8046812,20.0973052 30.8389033,19.9490965 31.0014087,19.6473858 C31.3184717,19.0589177 31.715408,18.8232393 33.0750938,18.415996 C34.1194902,18.1032359 34.7264224,17.8150228 35.144181,17.4333191 C35.5317243,17.0792722 35.6603361,16.8206347 35.6027301,16.5111828 C35.5286371,16.1131364 34.9208509,15.6708921 34.4479167,15.6708921 C34.3361203,15.6708921 33.8830231,15.7946861 33.4429316,15.9454752 C32.7269617,16.1908137 32.5785786,16.2197938 32.0504031,16.2175442 C31.4198241,16.2148976 30.8774605,16.0699971 30.5067984,15.8050739 L30.3097424,15.6642756 L30.3097424,11.5124456 C30.3097424,7.50948603 30.304816,7.34096474 30.1721974,6.81144927 C29.5969912,4.51560308 27.8268378,2.41725828 25.4490298,1.21273134 C24.2610453,0.610897949 22.7493637,0.202000589 21.1794848,0.057827879 C18.1579607,-0.219600378 15.1593608,0.510393889 13.0148012,2.04554543 C12.3229379,2.54078762 11.3741137,3.49660174 10.8714897,4.20456319 C10.3923154,4.87957466 9.94184554,5.7925141 9.70275103,6.57325664 L9.52034293,7.16873823 L9.50063734,11.575302 L9.48093175,15.9818658 L9.23789611,16.1009621 C9.07768965,16.1794995 8.79123603,16.2307109 8.39712419,16.2513543 C7.70296187,16.2876787 7.22792573,16.1854543 6.45940765,15.8343187 C5.86823989,15.5642347 5.46545759,15.538629 5.02089944,15.7428792 C4.67933584,15.8998217 4.45304996,16.0955366 4.32384696,16.3457712 C4.19819097,16.5891908 4.20561341,16.7030602 4.36916983,17.0404997 C4.54934462,17.4122787 4.81727499,17.5690889 6.1703923,18.0947006 C8.57447452,19.0286143 9.00254566,19.3544089 9.16702167,20.3751966 C9.25996638,20.9524168 9.11775769,21.5463104 8.66807608,22.4593822 C7.7555758,24.3119916 6.1802451,26.2171357 4.52825964,27.4658606 C3.66200182,28.1206257 2.43289836,28.7152472 1.3490908,29.0038572 C-0.293041858,29.4411392 -0.418238052,29.8346864 0.876156598,30.4905101 C1.6307494,30.8728093 3.61523388,31.4714668 4.82384352,31.6814071 C5.06031062,31.7224292 5.31530098,31.7688768 5.39530568,31.7854179 C5.62783167,31.8335858 5.79421255,32.2980614 5.93924571,33.3037637 C6.01176229,33.8066148 6.10017471,34.2519688 6.13426538,34.2863083 C6.17380794,34.3262055 6.4922503,34.2734062 7.00459569,34.1420032 C8.08183472,33.8656998 8.53486628,33.7999983 9.3626982,33.7999983 C11.1230644,33.7999983 12.2431303,34.2059844 13.8555732,35.4285081 C14.8736954,36.2003846 15.7144673,36.747566 16.3253407,37.0357791 C18.1667626,37.9046529 20.686845,38.020044 22.7559322,37.3302117 C23.7027859,37.0145403 24.5294355,36.5646209 26.0730402,35.52491 C28.1421273,34.1312184 28.496828,33.9984922 30.1520977,33.9984922 C31.295022,33.9984922 31.9945705,34.0899317 32.9502918,34.3641179 C33.6399875,34.5619501 33.7658405,34.5672433 33.8535304,34.4020964 C33.9549485,34.2111453 34.1677689,33.2640649 34.2847544,32.4833223 C34.3422291,32.0995675 34.3947116,31.7827052 34.401937,31.7753609 C34.4091624,31.7680828 34.8420286,31.6832597 35.367511,31.5861962 C38.3561925,31.0339202 39.9654825,30.419317 39.9654825,29.830121 C39.9654825,29.5265578 39.7093098,29.3518831 38.6517764,28.9344506" id="Fill-1" fill="#1D1C1B" mask="url(#mask-2)"></path>
            </g>
        </g>
    </g>
</svg>