<svg xmlns="http://www.w3.org/2000/svg" width="15" height="15" viewBox="0 0 15 15">
    <path fill="#000" fill-rule="nonzero" d="M0 7.5a7.5 7.5 0 1 0 15 0 7.5 7.5 0 0 0-15 0zm10.434 3.504c-.128.242-.402.319-.612.17-1.678-1.183-3.79-1.45-6.277-.795-.24.063-.48-.11-.534-.387-.055-.277.095-.552.335-.615 2.722-.718 5.057-.41 6.94.92.21.148.277.464.148.707zm1.48-2.255a.61.61 0 0 1-.793.173C9.13 7.81 6.098 7.487 3.745 8.137c-.305.084-.628-.072-.72-.35-.092-.277.08-.57.385-.655 2.688-.742 6.03-.382 8.315.895.27.152.357.476.19.722zm-.206-2.105C9.33 5.094 5.409 4.952 3.14 5.708c-.364.121-.75-.105-.86-.505-.11-.4.095-.822.46-.944 2.605-.868 6.935-.7 9.672 1.083.328.213.436.678.241 1.037-.194.36-.618.478-.945.265z"/>
</svg>
