<svg xmlns="http://www.w3.org/2000/svg" xmlns:xlink="http://www.w3.org/1999/xlink" width="61" height="18" viewBox="0 0 61 18">
  <path fill="#000" fill-rule="nonzero" d="M5.042 3.51v13.713h3.7V3.511h5.041V.4H0v3.11h5.042zm13.948 9.967h6.29l-3.086-8.93h-.047l-3.157 8.93zM20.31.4h3.793l6.29 16.822h-3.84l-1.272-3.746h-6.29l-1.32 3.746h-3.723L20.31.401zm15.243 7.916h2.875c.424 0 .832-.031 1.225-.094a2.85 2.85 0 0 0 1.037-.365 1.99 1.99 0 0 0 .718-.766c.18-.33.271-.762.271-1.296s-.09-.966-.27-1.296a1.99 1.99 0 0 0-.72-.766 2.85 2.85 0 0 0-1.036-.365 7.747 7.747 0 0 0-1.225-.094h-2.875v5.042zM31.854.401h7.587c1.052 0 1.948.153 2.686.459.738.306 1.339.71 1.802 1.213a4.661 4.661 0 0 1 1.013 1.72 6.398 6.398 0 0 1 0 3.994 4.646 4.646 0 0 1-1.013 1.732c-.463.502-1.064.907-1.802 1.213-.738.306-1.634.46-2.686.46h-3.888v6.031h-3.699V.401zM50.09 11.639h-3.58c-.016 1.037.172 1.932.565 2.686a5.295 5.295 0 0 0 1.59 1.861 6.785 6.785 0 0 0 2.309 1.072c.872.228 1.771.342 2.698.342 1.146 0 2.156-.134 3.027-.4.872-.268 1.602-.64 2.191-1.12a4.658 4.658 0 0 0 1.332-1.708 5.14 5.14 0 0 0 .447-2.144c0-.942-.2-1.716-.6-2.32a5.018 5.018 0 0 0-1.426-1.45 6.266 6.266 0 0 0-1.66-.789 16.013 16.013 0 0 0-1.309-.342 259.502 259.502 0 0 1-2.556-.66c-.652-.172-1.162-.345-1.531-.518-.37-.172-.617-.36-.743-.565-.125-.204-.188-.471-.188-.801 0-.361.078-.66.236-.895.157-.236.357-.432.6-.59.244-.157.515-.266.813-.33.299-.062.597-.094.896-.094.455 0 .875.04 1.26.118.385.079.727.212 1.025.4.298.19.538.448.719.778.18.33.286.746.318 1.249h3.58c0-.974-.184-1.802-.553-2.486a4.827 4.827 0 0 0-1.496-1.684 6.317 6.317 0 0 0-2.156-.954A10.702 10.702 0 0 0 53.365 0a8.62 8.62 0 0 0-2.261.306 6.315 6.315 0 0 0-2.027.943 5.017 5.017 0 0 0-1.449 1.59c-.369.636-.553 1.386-.553 2.25 0 .77.145 1.426.436 1.967.29.542.671.994 1.142 1.355a6.314 6.314 0 0 0 1.602.884c.597.228 1.21.42 1.838.577.613.173 1.217.33 1.814.471.597.142 1.131.307 1.603.495.47.189.852.424 1.142.707.29.283.436.652.436 1.107 0 .424-.11.774-.33 1.049-.22.275-.495.49-.824.648-.33.157-.684.263-1.06.318-.378.055-.731.082-1.06.082-.488 0-.959-.059-1.415-.177a3.519 3.519 0 0 1-1.19-.541 2.676 2.676 0 0 1-.812-.955c-.204-.392-.307-.871-.307-1.437z"/>    
</svg>
