<svg xmlns="http://www.w3.org/2000/svg" width="50" height="50" viewBox="0 0 50 50">
    <path fill="#000" fill-rule="nonzero" d="M25 50C11.193 50 0 38.807 0 25S11.193 0 25 0s25 11.193 25 25-11.193 25-25 25zm0-1.875c12.772 0 23.125-10.353 23.125-23.125S37.772 1.875 25 1.875 1.875 12.228 1.875 25 12.228 48.125 25 48.125zm11.932-11.193l-2.17-2.17c5.393-5.391 5.393-14.133 0-19.525-5.391-5.392-14.133-5.392-19.525 0-5.392 5.392-5.392 14.134 0 19.526l-2.17 2.17c-6.59-6.59-6.59-17.275 0-23.865s17.275-6.59 23.865 0 6.59 17.274 0 23.864zm-3.68-3.68l-2.381-2.381a8.422 8.422 0 1 0-11.91 0l-2.383 2.382c-4.604-4.605-4.604-12.07 0-16.675 4.605-4.604 12.07-4.604 16.675 0 4.604 4.605 4.604 12.07 0 16.675z"/>
</svg>
