<?xml version="1.0" encoding="UTF-8" standalone="no"?>
<svg width="40px" height="40px" viewBox="0 0 40 40" version="1.1" xmlns="http://www.w3.org/2000/svg" xmlns:xlink="http://www.w3.org/1999/xlink">
    <!-- Generator: Sketch 39.1 (31720) - http://www.bohemiancoding.com/sketch -->
    <title>tumblr</title>
    <desc>Created with Sketch.</desc>
    <defs></defs>
    <g id="Symbols" stroke="none" stroke-width="1" fill="none" fill-rule="evenodd">
        <g id="tumblr" fill="#000000">
            <path d="M36.0869565,0 L3.91304348,0 C2.82608152,0 1.90217772,0.380430978 1.14130435,1.14130435 C0.380430978,1.90217772 0,2.82608152 0,3.91304348 L0,36.0869565 C0,37.1739185 0.380430978,38.0978223 1.14130435,38.8586957 C1.90217772,39.619569 2.82608152,40 3.91304348,40 L36.0869565,40 C37.1739185,40 38.0978223,39.619569 38.8586957,38.8586957 C39.619569,38.0978223 40,37.1739185 40,36.0869565 L40,3.91304348 C40,2.82608152 39.619569,1.90217772 38.8586957,1.14130435 C38.0978223,0.380430978 37.1739185,0 36.0869565,0 L36.0869565,0 Z M29.3478261,33.4782609 C28.0434717,34.0579739 26.8478315,34.4927522 25.7608696,34.7826087 C24.8188359,35.0000011 23.6956587,35.1086957 22.3913043,35.1086957 C21.1594141,35.1086957 19.9275424,34.927538 18.6956522,34.5652174 C17.6811543,34.2028967 16.7753663,33.6956554 15.9782609,33.0434783 C15.2536196,32.318837 14.7463783,31.630438 14.4565217,30.9782609 C14.1666652,30.3985478 14.0217391,29.3478337 14.0217391,27.826087 L14.0217391,17.2826087 L10.6521739,17.2826087 L10.6521739,13.0434783 C12.0289924,12.5362293 13.043475,11.956525 13.6956522,11.3043478 C14.4927576,10.7246348 15.1811565,9.89130978 15.7608696,8.80434783 C16.2681185,7.78985 16.6304337,6.48551522 16.8478261,4.89130435 L21.0869565,4.89130435 L21.0869565,12.5 L28.2608696,12.5 L28.2608696,17.2826087 L21.0869565,17.2826087 L21.0869565,25 C21.0869565,26.8116033 21.1956511,27.9347804 21.4130435,28.3695652 C21.6304359,28.8768141 21.9927511,29.2753609 22.5,29.5652174 C23.1521772,30.0000022 23.9130391,30.2173913 24.7826087,30.2173913 C26.2318913,30.2173913 27.7536152,29.71015 29.3478261,28.6956522 L29.3478261,33.4782609 Z" id="social-icons-copy-3"></path>
        </g>
    </g>
</svg>