<?xml version="1.0" encoding="UTF-8" standalone="no"?>
<svg width="40px" height="40px" viewBox="0 0 40 40" version="1.1" xmlns="http://www.w3.org/2000/svg" xmlns:xlink="http://www.w3.org/1999/xlink">
    <!-- Generator: Sketch 39.1 (31720) - http://www.bohemiancoding.com/sketch -->
    <title>twitter</title>
    <desc>Created with Sketch.</desc>
    <defs></defs>
    <g id="Symbols" stroke="none" stroke-width="1" fill="none" fill-rule="evenodd">
        <g id="twitter" fill="#000000">
            <path d="M40,7.81355932 C38.8135534,9.45198559 37.4293864,10.8644008 35.8474576,12.0508475 L35.8474576,13.0677966 C35.8474576,16.7966288 35.0000085,20.4124119 33.3050847,23.9152542 C31.4971661,27.4180966 28.7853288,30.3559203 25.1694915,32.7288136 C21.4971568,35.1017068 17.3164076,36.2881356 12.6271186,36.2881356 C7.99432712,36.2881356 3.78532966,35.0734585 0,32.6440678 C0.282487288,32.7005653 0.96044661,32.7288136 2.03389831,32.7288136 C5.87572542,32.7288136 9.26552203,31.5988814 12.2033898,29.3389831 C10.4519686,29.2824856 8.87006356,28.7175195 7.45762712,27.6440678 C6.04519068,26.6271136 5.08474831,25.2711949 4.57627119,23.5762712 C4.91525593,23.6892661 5.39547712,23.7457627 6.01694915,23.7457627 C6.80791356,23.7457627 7.54236949,23.6610178 8.22033898,23.4915254 C6.29942542,23.0960432 4.71752034,22.1356008 3.47457627,20.6101695 C2.28812966,19.0847381 1.69491525,17.3615915 1.69491525,15.440678 L1.69491525,15.3559322 C2.88136186,15.9774042 4.09603898,16.3163839 5.33898305,16.3728814 C2.90959237,14.6779576 1.69491525,12.3898449 1.69491525,9.50847458 C1.69491525,8.09603814 2.06214322,6.74011949 2.79661017,5.44067797 C7.31640678,10.9209314 12.9660678,13.7457619 19.7457627,13.9152542 C19.5762703,13.4067771 19.4915254,12.8135627 19.4915254,12.1355932 C19.4915254,9.81919746 20.282478,7.89831271 21.8644068,6.37288136 C23.4463356,4.79095254 25.3954686,4 27.7118644,4 C30.0847576,4 32.062139,4.81920085 33.6440678,6.45762712 C35.5084839,6.06214492 37.2316305,5.4406822 38.8135593,4.59322034 C38.1920873,6.5141339 37.0056585,8.01129407 35.2542373,9.08474576 C36.8926636,8.80225847 38.4745686,8.3785339 40,7.81355932 L40,7.81355932 Z" id="Twitter-Copy"></path>
        </g>
    </g>
</svg>