<?xml version="1.0" encoding="UTF-8" standalone="no"?>
<svg width="40px" height="40px" viewBox="0 0 40 40" version="1.1" xmlns="http://www.w3.org/2000/svg" xmlns:xlink="http://www.w3.org/1999/xlink">
    <!-- Generator: Sketch 39.1 (31720) - http://www.bohemiancoding.com/sketch -->
    <title>unmuted</title>
    <desc>Created with Sketch.</desc>
    <defs></defs>
    <g id="Symbols" stroke="none" stroke-width="1" fill="none" fill-rule="evenodd">
        <g id="unmuted" fill="#000000">
            <g id="Group" transform="translate(0.000000, 4.000000)">
                <path d="M25.1132794,23.3047106 C24.8807479,22.3745844 25.1520306,21.6770003 25.9271357,21.2119373 L27.0897875,20.6306114 C27.1672981,20.5531009 27.3029394,20.4368368 27.4967157,20.2818158 C27.690492,20.1267948 27.864888,19.9717761 28.019909,19.8167551 C28.0974195,19.7392446 28.2330609,19.6036032 28.4268371,19.4098269 C28.6206134,19.2160507 28.7562548,19.0416546 28.8337653,18.8866336 C29.1438073,18.4215706 29.3375807,18.0340238 29.4150912,17.7239818 C29.6476227,17.0263872 29.7638867,16.6388405 29.7638867,16.56133 C29.9189078,15.9412459 29.9964171,15.5149445 29.9964171,15.282413 C29.9964171,14.8948604 29.9189078,14.468559 29.7638867,14.003496 C29.7638867,13.8484749 29.6476227,13.4221735 29.4150912,12.7245789 C29.3375807,12.4920474 29.1438073,12.1432554 28.8337653,11.6781923 C28.7562548,11.5231713 28.6206134,11.3293979 28.4268371,11.0968664 C28.2330609,10.8643349 28.0974195,10.7093162 28.019909,10.6318057 C27.1672934,9.93421107 26.4697093,9.46915499 25.9271357,9.23662347 C25.5395832,9.15911296 25.2683005,8.88783024 25.1132794,8.42276719 C24.9582584,7.95770413 24.9582584,7.5701574 25.1132794,7.26011536 C25.5783425,6.17496823 26.2759266,5.90368552 27.2060527,6.44625908 C28.3687104,6.91132214 29.3763319,7.57015159 30.2289475,8.42276719 C30.3839685,8.57778821 30.5971192,8.82969358 30.868406,9.17849087 C31.1396928,9.52728817 31.3528435,9.77919354 31.5078645,9.93421456 C31.585375,10.0117251 31.6628843,10.1279891 31.7403949,10.2830101 C31.8179054,10.4380311 31.8760374,10.5736725 31.9147926,10.6899382 C31.9535479,10.806204 32.0116799,10.9418454 32.0891904,11.0968664 C32.1667009,11.2518874 32.2442103,11.4069061 32.3217208,11.5619271 C32.6317628,12.3370322 32.8255362,12.9183523 32.9030467,13.3059049 C32.9805572,13.7709679 33.0193119,14.4297974 33.0193119,15.282413 C33.0193119,15.5149445 32.9999345,15.8249819 32.9611793,16.2125344 C32.922424,16.600087 32.9030467,16.9101244 32.9030467,17.1426559 C32.8255362,17.3751874 32.7286495,17.6852248 32.6123837,18.0727773 C32.496118,18.4603299 32.3992313,18.7703673 32.3217208,19.0028988 L31.5078645,20.6306114 C31.1978224,21.1731849 30.771521,21.638241 30.2289475,22.0257936 C29.9189054,22.3358356 29.4538494,22.7233823 28.8337653,23.1884454 C27.9036392,23.7310189 27.3610737,24.0410563 27.2060527,24.1185668 C26.2759266,24.3510984 25.5783425,24.0798157 25.1132794,23.3047106 L25.1132794,23.3047106 Z" id="Path"></path>
                <path d="M29.9964171,29.3505001 C28.9887805,29.7380526 28.2911964,29.4667699 27.9036438,28.5366438 C27.5160913,27.6065177 27.787374,26.9476882 28.7175001,26.5601357 C29.6476262,26.0950726 30.3064557,25.7075259 30.6940082,25.3974838 C31.3916028,24.9324208 32.0116776,24.42861 32.5542511,23.8860365 C32.7867827,23.7310155 33.2905934,23.1496954 34.0656985,22.1420587 C34.5307616,21.4444642 34.8795536,20.74688 35.1120851,20.0492854 C35.4221272,19.3516909 35.6546552,18.5765974 35.8096762,17.7239818 C35.9646973,17.2589187 36.0422066,16.4450706 36.0422066,15.282413 C36.0422066,14.1972658 35.9646973,13.3834177 35.8096762,12.8408441 C35.6546552,12.065739 35.4221272,11.3294002 35.1120851,10.6318057 L34.0656985,8.53903237 C33.2905934,7.53139575 32.7867827,6.95007565 32.5542511,6.79505463 C32.0116776,6.25248107 31.3916028,5.74867031 30.6940082,5.28360726 C30.3064557,4.97356522 29.6476262,4.58601849 28.7175001,4.12095543 C28.3299476,4.04344492 28.0586648,3.77216221 27.9036438,3.30709915 C27.7486228,2.8420361 27.7486228,2.45448936 27.9036438,2.14444733 C28.3687069,1.0593002 29.066291,0.788017483 29.9964171,1.33059105 C30.8490327,1.64063309 31.7016355,2.10568917 32.5542511,2.72577324 C33.6393983,3.50087833 34.4144917,4.12095311 34.8795548,4.58601616 C35.5771494,5.28361075 36.1972241,6.05870421 36.7397977,6.91131981 C37.3598818,7.76393542 37.8249379,8.61653823 38.1349799,9.46915383 C38.600043,10.6318115 38.8713257,11.6006783 38.9488362,12.3757834 C39.1813677,13.073378 39.2976317,14.1197542 39.2976317,15.5149433 C39.2976317,16.832622 39.1813677,17.8402435 38.9488362,18.5378381 C38.7163046,19.7780062 38.4450219,20.7468731 38.1349799,21.4444676 C37.7474273,22.4521043 37.2823713,23.3434617 36.7397977,24.1185668 C35.5771401,25.513756 34.9570653,26.2500948 34.8795548,26.3276053 C34.1819602,27.0251999 33.4068667,27.6840293 32.5542511,28.3041134 C32.2442091,28.3816239 31.7985304,28.55602 31.2172015,28.8273067 C30.6358727,29.0985935 30.2289486,29.2729895 29.9964171,29.3505001 L29.9964171,29.3505001 Z" id="Path"></path>
                <path d="M19.9976114,0.0516740397 C20.695206,0.206695058 21.0439981,0.749260485 21.0439981,1.6793866 L21.0439981,29.2342349 C21.0439981,30.0868505 20.695206,30.5906612 19.9976114,30.7456822 C19.3000168,30.9007033 18.6024327,30.7069299 17.9048381,30.1643563 C16.3546279,28.9241882 13.2542541,26.5989078 8.60362351,23.1884454 L2.6740992,23.1884454 C1.89899411,23.1884454 1.259542,22.9171627 0.755723687,22.3745891 C0.251905377,21.8320155 0,21.1731861 0,20.398081 L0,10.3992753 C0,9.6241702 0.251905377,8.98471809 0.755723687,8.48089978 C1.259542,7.97708147 1.89899411,7.72517609 2.6740992,7.72517609 L8.60362351,7.72517609 C9.37872861,7.10509202 10.8320289,6.00058383 12.9635679,4.41161839 C15.0951069,2.82265295 16.7421805,1.56312606 17.9048381,0.632999953 C18.6024327,0.0904263877 19.3000168,-0.103346979 19.9976114,0.0516740397 Z" id="Path"></path>
            </g>
        </g>
    </g>
</svg>