<?xml version="1.0" encoding="UTF-8" standalone="no"?>
<svg width="40px" height="40px" viewBox="0 0 40 40" version="1.1" xmlns="http://www.w3.org/2000/svg" xmlns:xlink="http://www.w3.org/1999/xlink">
    <!-- Generator: Sketch 39.1 (31720) - http://www.bohemiancoding.com/sketch -->
    <title>whatsapp</title>
    <desc>Created with Sketch.</desc>
    <defs></defs>
    <g id="Symbols" stroke="none" stroke-width="1" fill="none" fill-rule="evenodd">
        <g id="whatsapp" fill="#000000">
            <path d="M20,0 C14.4639099,0 9.74660819,1.94929825 5.84795322,5.84795322 C1.94929825,9.74660819 0,14.4639099 0,20 C0,25.5360901 1.94929825,30.2533918 5.84795322,34.1520468 C9.74660819,38.0507018 14.4639099,40 20,40 C25.5360901,40 30.2533918,38.0507018 34.1520468,34.1520468 C38.0507018,30.2533918 40,25.5360901 40,20 C40,14.4639099 38.0507018,9.74660819 34.1520468,5.84795322 C30.2533918,1.94929825 25.5360901,0 20,0 L20,0 Z M27.9532164,29.8245614 C27.0175392,30.2924 25.029255,29.7465965 21.9883041,28.1871345 C19.0253263,26.7056456 16.7641404,25.0682351 15.2046784,23.2748538 L15.5555556,23.5087719 C13.9960936,21.9493099 12.5925988,19.9220398 11.3450292,17.4269006 C10.2534058,15.1656807 9.8635462,13.5672561 10.1754386,12.6315789 C10.4093579,11.9298211 10.8771895,11.3450316 11.5789474,10.877193 C12.2027322,10.4873275 12.8265076,10.2923977 13.4502924,10.2923977 C13.918131,10.4483439 14.5808924,11.1890772 15.4385965,12.5146199 C16.4522468,13.9181357 17.1150082,14.9317708 17.4269006,15.5555556 C17.738793,16.1013673 17.1929895,17.0760164 15.7894737,18.4795322 C15.6335275,18.6354784 15.7504854,19.025338 16.1403509,19.6491228 C16.6081895,20.4288538 16.9980491,20.9746573 17.3099415,21.2865497 L17.8947368,22.1052632 C20.0779836,24.0545906 21.4035064,24.795324 21.871345,24.3274854 C23.0409415,22.8459965 24.0155906,22.261207 24.7953216,22.5730994 C25.7309988,23.040938 26.7836199,23.6647135 27.9532164,24.4444444 C29.3567322,25.3801216 30.0584795,26.042883 30.0584795,26.4327485 C30.2923988,28.0701836 29.5906515,29.2007766 27.9532164,29.8245614 L27.9532164,29.8245614 Z" id="L"></path>
        </g>
    </g>
</svg>