<?xml version="1.0" encoding="UTF-8" standalone="no"?>
<svg width="40px" height="40px" viewBox="0 0 40 40" version="1.1" xmlns="http://www.w3.org/2000/svg" xmlns:xlink="http://www.w3.org/1999/xlink">
    <!-- Generator: Sketch 39.1 (31720) - http://www.bohemiancoding.com/sketch -->
    <title>youtube</title>
    <desc>Created with Sketch.</desc>
    <defs></defs>
    <g id="Symbols" stroke="none" stroke-width="1" fill="none" fill-rule="evenodd">
        <g id="youtube" fill="#000000">
            <path d="M40,20.296875 L40,23.65625 C40,24.4375039 39.9218758,25.4531187 39.765625,26.703125 C39.7135414,27.9531313 39.557293,29.0468703 39.296875,29.984375 C39.036457,31.0781305 38.5156289,31.9895797 37.734375,32.71875 C37.0052047,33.4479203 36.0937555,33.8906242 35,34.046875 C31.0937305,34.4114602 26.0937805,34.59375 20,34.59375 C13.9062195,34.59375 8.90626953,34.4114602 5,34.046875 C3.90624453,33.8906242 2.99479531,33.4479203 2.265625,32.71875 C1.48437109,31.9895797 0.963542969,31.0781305 0.703125,29.984375 C0.442707031,29.0468703 0.286458594,27.9531313 0.234375,26.703125 C0.0781242188,25.4531187 0,24.4375039 0,23.65625 L0,20.296875 L0,16.9375 C0,16.1562461 0.0781242188,15.1406313 0.234375,13.890625 C0.286458594,12.6406187 0.442707031,11.5468797 0.703125,10.609375 C0.963542969,9.51561953 1.48437109,8.60417031 2.265625,7.875 C2.99479531,7.14582969 3.90624453,6.70312578 5,6.546875 C8.90626953,6.18228984 13.9062195,6 20,6 C26.0937805,6 31.0937305,6.18228984 35,6.546875 C36.0937555,6.70312578 37.0052047,7.14582969 37.734375,7.875 C38.5156289,8.60417031 39.036457,9.51561953 39.296875,10.609375 C39.557293,11.5468797 39.7135414,12.6406187 39.765625,13.890625 C39.9218758,15.1406313 40,16.1562461 40,16.9375 L40,20.296875 Z M28.59375,20.296875 C28.59375,19.7760391 28.3593773,19.385418 27.890625,19.125 L16.484375,11.9375 C16.0156227,11.6249984 15.5208359,11.6249984 15,11.9375 C14.5312477,12.197918 14.296875,12.6145805 14.296875,13.1875 L14.296875,27.40625 C14.296875,27.9791695 14.5312477,28.395832 15,28.65625 C15.2083344,28.8125008 15.442707,28.890625 15.703125,28.890625 C15.963543,28.890625 16.223957,28.8125008 16.484375,28.65625 L27.890625,21.46875 C28.3593773,21.208332 28.59375,20.8177109 28.59375,20.296875 Z" id="social-icons-copy-2"></path>
        </g>
    </g>
</svg>